<?xml version="1.0" encoding="utf-8"?>
<!-- Generator: Adobe Illustrator 16.0.4, SVG Export Plug-In . SVG Version: 6.00 Build 0)  -->
<!DOCTYPE svg PUBLIC "-//W3C//DTD SVG 1.1//EN" "http://www.w3.org/Graphics/SVG/1.1/DTD/svg11.dtd">
<svg version="1.1" id="Layer_1" xmlns="http://www.w3.org/2000/svg" xmlns:xlink="http://www.w3.org/1999/xlink" x="0px" y="0px"
	 width="375px" height="160px" viewBox="0 0 375 160" enable-background="new 0 0 375 160" xml:space="preserve">
<g>
	<path fill="#FFDFB8" d="M15.472,69.33c-9.513,18.979-0.237,51.111,20.081,58.261c20.319,7.146,69.353,15.932,107.466,16.572
		s60.485-7.391,99.666,2.777c39.182,10.167,65.328,9.185,86.949-10.061c12.808-11.402,68.373-66.841,1.411-89.818
		c-4.081-1.401-6.651-3.764-10.519-5.108c-3.598-1.25-8.506-1.482-11.931-2.68C255.271,20.62,222.081,8.317,186.733,6.469
		c-40.058-2.094-54.109,10.56-98.444,20.415C43.954,36.738,24.985,50.353,15.472,69.33z"/>
	<path opacity="0.3" fill="#FFFFFF" d="M89.788,42.005c-1.674,8.742,10.417,10.283,26.451,6.251
		c16.035-4.03,27.621-16.099,50.875-18.534c23.255-2.438,34.497-7.935,13.987-11.441C160.592,14.773,91.463,33.263,89.788,42.005z"
		/>
	<path opacity="0.2" fill="#FFFFFF" d="M237.539,107c-1.674,8.743,0.904,13.267,17.398,17.325
		c16.056,3.949,26.255,2.991,49.509,0.555s41.124-24.033,20.616-27.54c-7.371-1.261-25.771,9.698-38.746,10.321
		C263.188,108.772,238.611,101.399,237.539,107z"/>
	<path opacity="0.3" fill="#EFCAA3" d="M329.465,137.306c9.982-8.883,45.923-44.514,29.612-70.682
		c16.273,41.058-41.448,75.29-71.177,74.094c-30.234-1.217-102.318-10.219-137.458-13.273c-35.139-3.055-74.002,3.404-74.002,3.404
		C26.667,131.173,15.288,88.694,12.28,79.03c-3.459,18.76,5.825,42.907,23.105,48.986c20.318,7.149,69.353,15.935,107.466,16.575
		c38.111,0.641,60.485-7.393,99.666,2.775S307.844,156.55,329.465,137.306z"/>
</g>
</svg>
