<?xml version="1.0" encoding="utf-8"?>
<!-- Generator: Adobe Illustrator 16.0.4, SVG Export Plug-In . SVG Version: 6.00 Build 0)  -->
<!DOCTYPE svg PUBLIC "-//W3C//DTD SVG 1.1//EN" "http://www.w3.org/Graphics/SVG/1.1/DTD/svg11.dtd">
<svg version="1.1" id="Layer_1" xmlns="http://www.w3.org/2000/svg" xmlns:xlink="http://www.w3.org/1999/xlink" x="0px" y="0px"
	 width="375px" height="160px" viewBox="0 0 375 160" enable-background="new 0 0 375 160" xml:space="preserve">
<path opacity="0.1" d="M325.619,45.471c-3.945-1.354-6.43-3.64-10.169-4.939c-3.479-1.207-8.226-1.432-11.537-2.591
	C252.354,19.905,220.264,8.01,186.086,6.222c-38.733-2.025-52.318,10.21-95.186,19.739c-42.868,9.527-61.209,22.691-70.407,41.042
	c-1.46,2.912-2.458,6.145-3.033,9.549c-0.017-0.053-0.037-0.12-0.053-0.172c-3.345,18.139,5.631,41.489,22.341,47.366
	c19.646,6.912,67.056,15.406,103.908,16.025c36.851,0.617,49.06-9.51,86.941,0.32c37.885,9.83,72.272,25.449,93.178,6.842
	c6.201-5.518,23.073-35.914,29.942-53.494C360.777,75.785,358.206,56.653,325.619,45.471z"/>
</svg>
