<?xml version="1.0" encoding="utf-8"?>
<!-- Generator: Adobe Illustrator 16.0.4, SVG Export Plug-In . SVG Version: 6.00 Build 0)  -->
<!DOCTYPE svg PUBLIC "-//W3C//DTD SVG 1.1//EN" "http://www.w3.org/Graphics/SVG/1.1/DTD/svg11.dtd">
<svg version="1.1" id="Layer_1" xmlns="http://www.w3.org/2000/svg" xmlns:xlink="http://www.w3.org/1999/xlink" x="0px" y="0px"
	 width="375px" height="205px" viewBox="0 -0.238 375 205" enable-background="new 0 -0.238 375 205" xml:space="preserve">
<g>
	<g>
		<g>
			<path fill="#5B2602" d="M353.346,134.117c-6.361,15.109-19.254,28.805-38.188,39.885c-11.317,6.623-28.369,14.304-45.811,17.606
				c-12.467,2.359-28.179,1.341-28.179,1.341s-14.524,6.57-32.204,8.723c-10.967,1.334-24.728-1.343-32.207-1.343
				c-18.74,0-37.713-1.092-51.662-5.366c-5.723-1.755-9.394-7.382-9.394-7.382s-13.452,1.606-29.522-2.012
				c-12.214-2.751-26.722-10.036-33.559-14.323c-10.547-6.611-14.316-15.199-20.787-22.579c-6.11-6.968-15.016-13.573-17.243-21.305
				c-4.28-14.866-0.509-28.46,2.481-41.094c3.885-16.418,8.364-30.462,18.505-40.9C45.72,34.928,62.856,26.213,75.328,19.679
				c8.929-4.678,28.298-7.216,28.298-7.216s14.799-4.443,22.537-6.062c13.186-2.758,27.892-2.772,41.372-3.091
				c17.172-0.403,35.681-0.639,49.119,2.639c12.82,3.124,19.939,3.385,31.896,6.515c19.275,5.049,33.854,9.078,48.135,14.826
				c23.453,9.441,41.726,20.701,46.334,27.913C353.995,72.382,368.787,97.443,353.346,134.117z"/>
		</g>
		<g>
			<path fill="#4C2104" d="M354.562,134.117c14.627-26.482,4.815-46.775,0.992-54.974c-9.43,6.569-25.572,38.521-28.302,39.431
				c-3.646,1.215-17.019,10.939-29.173,10.939c-12.155,0-48.622,14.587-48.622,14.587l-43.76,1.216c0,0-35.384-1.443-51.186-6.307
				c-5.536-1.702-17.267-6.235-29.991-5.588c-12.724,0.649-10.018,14.755-10.901,14.628c-4.143-0.597-5.503-16.257,1.336-15.991
				c6.838,0.264-41.886-5.203-41.886-5.203s-14.586-1.215-19.449-13.371c-3.624-9.062-22.18-21.146-35.482-26.203
				c-7.646,18.087-5.031,30.701-2.33,40.081c2.227,7.73,11.288,14.203,17.242,21.305c6.506,7.764,10.249,16.074,20.787,22.579
				c6.867,4.239,21.346,11.572,33.56,14.323c16.07,3.618,29.522,2.012,29.522,2.012s3.67,5.627,9.393,7.382
				c13.95,4.274,32.922,5.366,51.662,5.366c7.479,0,21.24,2.677,32.207,1.343c17.68-2.151,32.204-8.723,32.204-8.723
				s15.714,1.02,28.181-1.341c17.44-3.304,34.49-10.983,45.809-17.606C335.309,162.921,346.636,148.467,354.562,134.117z"/>
		</g>
	</g>
	<g opacity="0.6">
		<g>
			<g>
				<g>
					<path fill="#351500" d="M205.244,121.038c0,0-5.732,5.405,9.268,4.794c14.997-0.61,11.469-2.714,18.396-2.211
						c2.787,0.203,7.525,0.689,11.416,0.085c1.716-0.267,12.049-0.324,29.199,15.958c-0.469-11.887-12.209-20.158-13.476-21.045
						c-5.259-3.684-19.655-5.28-29.458-4.157S205.244,121.038,205.244,121.038z"/>
					<path fill="#351500" d="M241.572,117.096c0,0,6.664-6.646,16.054-9.195c6.031-1.639,13.881,0.327,19.522,0.509
						c8.816,0.285-0.719,1.346-10.599,4.094c-6.293,1.751-11.379,5.304-16.312,6.162L241.572,117.096z"/>
				</g>
				<g>
					<path fill="#351500" d="M49.662,68.461c0,0-10.394,4.747,4.604,4.137c15-0.611,20.722-5.232,27.65-4.729
						c6.928,0.505,27.768,1.91,22.55-1.826c-5.22-3.737-19.657-5.279-29.459-4.156C65.205,63.009,49.662,68.461,49.662,68.461z"/>
					<path fill="#351500" d="M85.989,64.519c0,0,6.663-6.647,16.053-9.196c6.033-1.636,15.468-2.925,19.525,0.511
						s-5.319,0.474-15.2,3.222c-6.292,1.75-6.777,6.174-11.711,7.035L85.989,64.519z"/>
				</g>
				<path fill="#351500" d="M73.53,65.022c1.186-2.144,41.771,1.982,65.495-1.131c67.646-8.882,52.78,4.267-3.869,5.272
					C102.41,69.747,72.344,67.166,73.53,65.022z"/>
			</g>
			<path fill="#351500" d="M201.117,12.98c1.054-2.331,40.736,1.821,55.969,5.794c15.229,3.972,30.01,9.067,40.378,16.604
				c10.368,7.538,28.761,9.865,29.321,12.393c0.561,2.526,25.875,13.994,16.402,16.613c-9.473,2.62-33.037-17.355-52.069-21.31
				s-26.897-13.207-44.845-17.165C228.328,21.952,199.514,16.529,201.117,12.98z"/>
			<path fill="#351500" d="M328.248,90.249c-13.964,3.545-17.646,10.515-26.979,9.69c-9.33-0.822-25.117,8.812-14.862,8.326
				c10.256-0.484,21.923,1.194,28.421-3.182c6.498-4.375,32.064-15.796,24.589-17.932C331.943,85.019,328.248,90.249,328.248,90.249
				z"/>
			<path fill="#351500" d="M56.445,93.76c0,0,3.37,15.621,10.827,15.15c7.458-0.472,8.915,8.209,25.705,8.994
				c16.792,0.787,55.046,4.073,66.253,6.625c11.208,2.551,24.284,5.528,28.942,5.069c4.66-0.457,9.275-7.431-0.525-8.686
				c-9.8-1.255-36.868-5.03-48.058-4.976c-11.189,0.055-22.379,0.109-30.796-3.324c-8.415-3.433-14.931-1.663-24.751-5.959
				s-19.157-5.987-20.553-5.546C62.093,101.55,56.445,93.76,56.445,93.76z"/>
			<path fill="#351500" d="M182.092,44.754c0,0,18.385-5.914,30.239-4.748c11.854,1.169,21.073,2.043,35.892,3.811
				c14.819,1.767,26.985,0.479,27.689,7.221c0.704,6.74-7.516,8.007-13.133,4.355c-5.619-3.65-25.061-7.848-31.975-8.427
				c-6.914-0.577-19.742,0.099-29.613,0.146C191.32,47.161,183.435,48.733,182.092,44.754z"/>
			<path fill="#351500" d="M195.104,71.054c-2.955-0.171-20.022,7.148-16.398,7.743c3.623,0.596-0.007-0.92,22.707,0.501
				c22.714,1.422,38.193,3.491,34.533-2.314c-3.659-5.806-8.584-4.25-19.776-5.114C204.975,71.005,200.041,71.335,195.104,71.054z"
				/>
			<path fill="#351500" d="M66.501,39.207c-9.867-0.964,3.703-8.81,23.286-11.759c19.583-2.95,19.936-7.576,39.088-12.038
				c19.153-4.461,37.337-6.827,43.325-1.021c5.988,5.804-1.297,8.475-12.297,6.64c-10.999-1.835-18.841-0.778-29.885,1.688
				c-11.044,2.468-17.758,5.611-29.07,9.017C89.636,35.135,68.492,39.401,66.501,39.207z"/>
			<path fill="#351500" d="M113.004,99.549c0,0,4.818,11.334,24.449,9.976c19.631-1.358,34.569,4.245,48.1,2.287
				c13.532-1.96,22.3-7.053,1.976-8.214c-20.326-1.16-39.288-1.066-43.351-1.049C140.114,102.57,117.063,98.898,113.004,99.549z"/>
			<path fill="#351500" d="M209.988,68.071c-10.602-4.325,19.045-17.949,28.652-14.426c9.606,3.523,8.985,5.908,3.877,6.527
				C237.412,60.794,215.756,70.423,209.988,68.071z"/>
			<path fill="#351500" d="M137.856,53.875c-10.603-4.326,22.165-15.021,31.772-11.496c9.607,3.523-5.328,7.468-10.435,8.088
				C154.086,51.088,143.622,56.228,137.856,53.875z"/>
			<path fill="#351500" d="M263.02,68.406c-7.02,1.226-18.47,8.424-10.804,8.387c7.665-0.038,15.991,2.896,22.994-0.708
				c7.004-3.606,8.301-0.637,18.49-5.449c10.19-4.812,19.733-10.811,9.499-12.546c-10.233-1.735-8.289,2.422-19.776,4.265
				C271.936,64.195,263.02,68.406,263.02,68.406z"/>
			<path fill="#351500" d="M42.509,54.612c-9.196-2.521,0.594-6.551,8.899-6.591c8.306-0.042,24.285,1.069,24.285,1.069
				s-9.57,1.833-17.868,3.064C49.528,53.387,48.91,56.366,42.509,54.612z"/>
			<path fill="#351500" d="M82.658,74.518c0,0-8.397-0.61-8.364,4.168c0.032,4.777-11.576,11.786,7.768,11.039
				c19.344-0.747,19.359,1.425,31.254,2.235c11.895,0.81,33.789-2.122,16.293-3.773s-23.777,0.335-34.506-0.48
				c-10.73-0.815-15.182-4.053-11.704-6.894s9.06-4.823,12.323-4.838C98.986,75.958,93.373,73.163,82.658,74.518z"/>
			<path fill="#351500" d="M154.323,88.5c-3.496-0.105-11.64,2.448-7.207,3.076c4.434,0.631,13.075,2.979,20.532,2.289
				c7.455-0.688,15.771,4.122,20.229,0.262c4.458-3.857,3.062-3.636-5.1-3.812C174.616,90.137,160.385,88.688,154.323,88.5z"/>
			<path fill="#351500" d="M206.756,85.417c0,0-10.939,2.661-6.506,3.291c4.436,0.63,16.33,1.44,17.479-1.172
				C218.876,84.924,206.756,85.417,206.756,85.417z"/>
			<path fill="#351500" d="M185.612,27.315c0,0-9.764,3.957,1.661,4.118c11.424,0.16,24.729,2.7,24.239-0.771
				c-0.49-3.474-4.68-2.585-9.347-3.213S185.612,27.315,185.612,27.315z"/>
			<path fill="#351500" d="M310.594,67.526c0,0,2.219,8.71-8.564,11.111c-10.783,2.399-29.482,5.848-20.471,7.479
				c9.012,1.633,19.82,2.921,24.846,0.549c5.022-2.373,5.002-5.727,14.715-6.781c9.714-1.054,12.928-4.76,7.512-7.079
				C323.215,70.482,321.747,66.465,310.594,67.526z"/>
			<path fill="#351500" d="M128.152,75.135c0,0-0.368,0.071-0.961,0.194c-3.207,0.672-12.992,2.911-6.819,4.07
				c7.316,1.371,19.406,0.842,28.981,1.03c9.575,0.187,26.737-1.819,17.157-2.944c-9.583-1.127-21.468-1.26-28.774-1.225
				C130.43,76.297,128.152,75.135,128.152,75.135z"/>
			<path fill="#351500" d="M101.355,31.133c0,0,19.265-2.453,25.898-0.854c6.632,1.601,12.458-0.97,11.09-1.688
				c-1.368-0.72-5.301-6.145-19.888-3.351"/>
		</g>
	</g>
	<g opacity="0.15">
		<path fill="#8E5025" d="M238.641,53.645c-2.416-0.888-6.104-0.688-10.101,0.178c0.854,0.088,1.638,0.242,2.313,0.49
			c9.607,3.523,8.985,5.908,3.879,6.528c-3.611,0.438-15.498,5.38-24.188,7.405c6.479,1.613,27.021-7.472,31.976-8.074
			C247.627,59.553,248.248,57.169,238.641,53.645z"/>
		<path fill="#8E5025" d="M152.756,68.401c37.118-2.644,44.85-10.519,2.67-6.407C186.009,59.773,180.788,65.543,152.756,68.401z"/>
		<path fill="#8E5025" d="M235.945,76.984c-3.66-5.806-8.586-4.25-19.777-5.114c-11.193-0.864-16.127-0.534-21.064-0.814
			c-0.64-0.037-1.94,0.277-3.552,0.799c3.916,0.06,8.733,0.06,16.829,0.686c11.194,0.863,16.117-0.693,19.778,5.113
			c1.012,1.606,0.553,2.607-1.114,3.188C234.324,80.953,237.916,80.113,235.945,76.984z"/>
		<path fill="#8E5025" d="M169.629,42.379c-2.736-1.003-7.349-0.852-12.304-0.023c1.777,0.037,3.327,0.255,4.517,0.692
			c9.609,3.522-5.328,7.467-10.435,8.087c-2.861,0.349-7.405,2.113-11.861,3.188c5.943,0.99,15.004-3.291,19.648-3.854
			C164.301,49.846,179.236,45.903,169.629,42.379z"/>
		<path fill="#8E5025" d="M72.7,62.211c2.812-0.054,5.763,0.061,8.634,0.336c0.429-0.322,0.884-0.661,1.39-1.012
			c-2.711-0.033-5.35,0.078-7.717,0.35C74.268,61.97,73.494,62.082,72.7,62.211z"/>
		<path fill="#8E5025" d="M100.948,31.732c0.986-0.298,1.928-0.592,2.85-0.885c0.456-0.051,0.967-0.105,1.521-0.162
			c-3.66,0.24-7.104,0.587-9.307,0.831c-0.922,0.291-1.864,0.586-2.851,0.883c-7.88,2.371-20.524,5.158-28.149,6.567
			c0.422,0.103,0.912,0.185,1.489,0.239C68.492,39.401,89.636,35.135,100.948,31.732z"/>
		<path fill="#8E5025" d="M140.155,20.79c-5.74,0.133-11.248,1.104-17.923,2.595c-2.716,0.606-5.168,1.256-7.493,1.938
			c11.258-1.14,14.588,3.291,15.818,3.938c0.546,0.287-0.068,0.868-1.41,1.361c5.795,0.769,10.432-1.38,9.196-2.029
			c-1.23-0.646-4.561-5.078-15.817-3.938c2.324-0.682,4.776-1.329,7.492-1.938C133.672,21.901,136.972,21.243,140.155,20.79z"/>
		<path fill="#8E5025" d="M208.312,89.325c4.386,0.093,8.742-0.259,9.416-1.788c1.146-2.612-10.974-2.119-10.974-2.119
			s-1.192,0.291-2.632,0.703c3.141,0.161,6.441,0.664,5.816,2.083C209.729,88.688,209.145,89.052,208.312,89.325z"/>
		<path fill="#8E5025" d="M200.479,40.533c1.41-0.024,2.778,0.015,4.065,0.143c11.854,1.168,21.073,2.041,35.894,3.809
			c14.819,1.767,26.983,0.479,27.688,7.222c0.253,2.42-0.654,4.122-2.169,5.157c5.081,1.552,10.534-0.283,9.956-5.826
			c-0.704-6.74-12.871-5.453-27.689-7.22c-14.818-1.768-24.037-2.642-35.892-3.811C208.748,39.654,204.568,39.951,200.479,40.533z"
			/>
		<path fill="#8E5025" d="M121.566,55.833c-3.173-2.687-9.631-2.479-15.181-1.48c2.984,0.092,5.674,0.692,7.394,2.149
			c0.728,0.614,1.016,1.021,0.956,1.296C120.645,57.506,124.412,58.243,121.566,55.833z"/>
		<path fill="#8E5025" d="M74.129,68.537c-5.714-0.416-10.624,2.651-20.583,4.083c0.24-0.007,0.467-0.012,0.72-0.021
			c10.289-0.419,16.211-2.725,21.153-3.969C74.952,68.595,74.516,68.565,74.129,68.537z"/>
		<path fill="#8E5025" d="M106.366,59.054c0.985-0.274,1.964-0.489,2.927-0.662c-2.954,0.049-6.792,0.238-10.713,1.33
			c-3.738,1.039-5.427,3.02-7.216,4.639c1.253,0.37,2.376,0.79,3.36,1.25c11.727,0.273,24.885,0.317,35.202-0.896
			c-8.712,0.513-18.479,0.438-27.415,0.228c-0.985-0.459-2.108-0.879-3.362-1.249C100.938,62.073,102.629,60.092,106.366,59.054z"/>
		<path fill="#8E5025" d="M156.068,80.287c8.886-0.473,18.01-1.911,10.44-2.801c-9.583-1.127-21.468-1.26-28.774-1.224
			c-7.306,0.035-9.583-1.128-9.583-1.128s-0.368,0.071-0.961,0.194c-1.065,0.225-2.854,0.62-4.545,1.092
			c1.496,0.271,3.823,0.526,7.301,0.51c7.306-0.036,19.192,0.097,28.775,1.223C163.958,78.769,161.203,79.646,156.068,80.287z"/>
		<path fill="#8E5025" d="M180.091,94.795c-0.213,0.185-0.442,0.331-0.67,0.479c3.35,0.559,6.34,0.687,8.457-1.146
			c4.458-3.857,3.062-3.636-5.1-3.812c-8.161-0.178-22.392-1.627-28.454-1.815c-1.344-0.041-3.373,0.312-5.112,0.796
			c6.903,0.407,18.654,1.533,25.78,1.688C183.151,91.159,184.548,90.936,180.091,94.795z"/>
		<path fill="#8E5025" d="M122.624,91.979c10.644-0.506,20.409-2.524,6.986-3.792c-17.496-1.651-23.777,0.335-34.506-0.48
			c-10.73-0.815-15.182-4.053-11.704-6.894s9.06-4.823,12.323-4.838c3.264-0.018-2.35-2.812-13.065-1.457
			c0,0-2.323-0.161-4.52,0.374c8.542-0.483,12.711,1.734,9.799,1.751c-3.264,0.016-8.846,1.998-12.323,4.839
			c-3.478,2.841,0.974,6.075,11.704,6.894c10.729,0.815,17.011-1.171,34.505,0.479C131.728,89.792,129.005,91.134,122.624,91.979z"
			/>
		<path fill="#8E5025" d="M187.647,120.916c-9.8-1.255-36.868-5.03-48.058-4.976c-11.189,0.055-22.379,0.109-30.796-3.324
			c-8.415-3.433-14.931-1.663-24.751-5.959s-19.157-5.987-20.553-5.546c-1.396,0.44-7.044-7.352-7.044-7.352s0.923,4.272,2.869,8.28
			c3.894,0.67,10.302,2.381,16.942,5.285c9.82,4.294,16.335,2.525,24.751,5.959s19.605,3.378,30.795,3.324
			c11.189-0.058,38.258,3.719,48.059,4.976c7.866,1.006,6.442,5.694,3.166,7.743c2.159,0.275,3.939,0.392,5.146,0.272
			C192.833,129.143,197.448,122.17,187.647,120.916z"/>
		<path fill="#8E5025" d="M164.413,15.056c3.25,3.148,2.586,5.373-0.455,6.458c8.604,0.604,13.457-2.072,8.242-7.127
			c-3.806-3.688-12.535-4.075-23.307-2.725C156.005,11.392,161.577,12.307,164.413,15.056z"/>
		<path fill="#8E5025" d="M179.427,112.216c2.077-0.006,4.119-0.114,6.125-0.404c13.532-1.96,22.302-7.053,1.976-8.214
			c-20.326-1.16-39.288-1.066-43.351-1.049c-4.063,0.021-27.114-3.65-31.173-3c0,0,0.184,0.426,0.616,1.1
			c8.388,0.88,19.999,2.584,22.771,2.569c4.063-0.021,23.025-0.112,43.35,1.049C199.221,105.38,191.973,110.099,179.427,112.216z"/>
		<path fill="#8E5025" d="M252.264,119.287c0.896,0.627,7.032,4.972,10.711,11.669c3.157,2.196,6.678,5.033,10.549,8.708
			c-0.469-11.887-12.209-20.158-13.475-21.045c-1.015-0.711-2.377-1.342-3.974-1.894c-1.767,0.771-3.468,1.404-5.146,1.775
			C251.415,118.753,251.871,119.01,252.264,119.287z"/>
		<path fill="#8E5025" d="M280.628,108.866c-0.673,0.015-1.069-0.879-1.731-0.849c-1.879,0.089-3.149,0.753-3.48,0.288
			c-5.443-0.434-12.354-1.883-17.789-0.404c-0.083,0.021-0.161,0.05-0.244,0.073c4.206,0.207,8.51,0.992,11.98,1.104
			c8.816,0.285-0.719,1.346-10.6,4.094c-2.345,0.651-7.102,1.637-6.584,2.476c0.518,0.837,2.717,0.673,3.896,1.078
			c3.2-1.395,6.606-3.146,10.476-4.223C273.611,110.541,280.493,109.439,280.628,108.866z"/>
		<path fill="#8E5025" d="M326.785,47.771c-0.561-2.526-18.953-4.854-29.321-12.393c-10.368-7.537-25.147-12.634-40.378-16.604
			c-15.23-3.973-54.915-8.125-55.969-5.794c-0.008,0.019-0.004,0.039-0.01,0.059c12.554,0.463,36.983,3.48,48.19,6.403
			c15.231,3.972,30.011,9.068,40.379,16.605s28.761,9.865,29.321,12.392c0.501,2.263,20.839,11.691,18.281,15.519
			c2.308,0.658,4.312,0.869,5.908,0.428C352.66,61.765,327.346,50.298,326.785,47.771z"/>
		<path fill="#8E5025" d="M339.417,87.153c-3.549-1.014-6.237-0.362-8.09,0.598c0.104,0.027,0.198,0.041,0.304,0.071
			c7.477,2.136-18.092,13.556-24.59,17.932c-1.82,1.226-4.055,1.965-6.541,2.42c5.607-0.108,10.753-0.682,14.328-3.089
			C321.325,100.709,346.893,89.289,339.417,87.153z"/>
		<path fill="#8E5025" d="M67.908,49.759c0,0-9.571,1.833-17.868,3.063c-3.305,0.49-5.386,1.257-7.104,1.892
			c5.994,1.5,6.787-1.356,14.89-2.559c8.298-1.231,17.868-3.064,17.868-3.064s-15.979-1.111-24.285-1.069
			c-2.044,0.009-4.176,0.262-6.096,0.674C53.917,48.786,67.908,49.759,67.908,49.759z"/>
		<path fill="#8E5025" d="M230.591,114.461c-0.747,0.087-1.532,0.2-2.337,0.332c2.812-0.052,10.016,2.085,12.891,2.365
			c0.433-0.327,3.765-2.347,4.274-2.702C242.712,114.419,232.955,114.191,230.591,114.461z"/>
		<path fill="#8E5025" d="M225.122,124.29c-5.154-0.374-4.524,0.692-10.042,1.518c6.702-0.302,9.549-0.905,11.365-1.416
			C225.975,124.354,225.523,124.32,225.122,124.29z"/>
		<path fill="#8E5025" d="M328.63,72.804c-5.415-2.322-6.883-6.34-18.036-5.278c0,0,0.088,0.354,0.145,0.935
			c4.492,0.985,6.354,3.403,10.105,5.013c5.417,2.319,2.201,6.024-7.513,7.08c-9.712,1.054-9.688,4.407-14.714,6.78
			c-0.52,0.245-1.112,0.441-1.745,0.611c3.881,0.106,7.286-0.219,9.532-1.279c5.021-2.373,5.001-5.727,14.714-6.781
			C330.832,78.831,334.046,75.125,328.63,72.804z"/>
		<path fill="#8E5025" d="M194.38,28.119c4.666,0.628,8.856-0.262,9.347,3.21c0.062,0.442-0.101,0.786-0.453,1.051
			c5.009,0.269,8.494,0.089,8.238-1.717c-0.49-3.474-4.68-2.585-9.347-3.213c-4.667-0.629-16.553-0.135-16.553-0.135
			s-0.479,0.192-1.101,0.497C188.029,27.77,192.08,27.808,194.38,28.119z"/>
		<path fill="#8E5025" d="M275.21,76.084c7.004-3.606,8.301-0.637,18.49-5.449c10.19-4.812,19.733-10.812,9.499-12.546
			c-4.643-0.787-6.778-0.36-8.799,0.511c0.324,0.047,0.658,0.098,1.013,0.156c10.233,1.735,0.69,7.734-9.498,12.549
			c-10.19,4.812-11.487,1.842-18.491,5.445c-0.879,0.454-1.777,0.804-2.693,1.067C268.377,78.019,271.938,77.768,275.21,76.084z"/>
		<path fill="#8E5025" d="M294.688,100.654c1.864,0.031,3.521-0.246,5.097-0.755C298.166,99.931,296.421,100.209,294.688,100.654z"
			/>
	</g>
	<path fill="#70330A" d="M182.438,2.738c0,0,25.864,5.947,36.404,7.945c10.539,1.996,22.051,2.562,27.327,2.601
		c5.276,0.038,29.688,7.896,29.688,7.896S223.727-0.796,182.438,2.738z"/>
	<path fill="#351500" d="M225.375,30.346c0,0,19.823,3.152,28.232,4.419c8.408,1.264,21.896,7.377,21.896,7.377l17.674,9.151
		c0,0-18-5.546-20.688-7.971c-2.689-2.426-11.405-2.791-20.101-6.164C243.691,33.789,225.375,30.346,225.375,30.346z"/>
	<path fill="#70330A" d="M279.889,134.365c0,0,4.904-5.152,12.043-5.424c7.139-0.272,18.289-2.136,22.42-4.918
		c4.127-2.779,13.907-9.303,14.561-9.73c0.65-0.428,9.48-6.444,9.262-6.016c-0.22,0.431-8.035,15.432-18.115,18.815
		c-10.08,3.387-13.558,5.633-16.695,6.039c-3.141,0.41-10.926,0.569-14.279,0.978C285.729,134.517,279.889,134.365,279.889,134.365z
		"/>
	<path fill="#70330A" d="M20.51,88.09c5.976,5.129,25.108,15.822,26.233,15.527c1.125-0.293-10.802-10.984-15.554-14.718
		c-4.751-3.734-12.104-8.293-12.254-10.828C18.032,83.272,14.866,86.663,20.51,88.09z"/>
	<g>
		<path fill="#70330A" d="M227.346,143.441c-7.002-0.877-19.41-0.386-31.365-0.476c-11.953-0.087-65.438-14.358-72.063-10.284
			c0,0,1.787,0.84,4.981,2.036c7.239,0.164,15.737,4.082,27.214,6.463c14.972,3.104,32.932,4.835,38.591,4.878
			c11.107,0.082,22.312-0.871,29.343,0.045c3.052-0.405,30.136-1.027,30.714-1.527c0.111-0.096,2.43-2.746,0.94-2.832
			C249.441,141.376,229.016,143.649,227.346,143.441z"/>
	</g>
	<path fill="#5B2602" d="M259.001,137.84c0,0,13.022,8.158,11.522,16.791c-1.502,8.633,9.545-12.839,1.887-16.74
		C257.627,130.362,259.001,137.84,259.001,137.84z"/>
	<g>
		<path fill="#351500" d="M355.57,133.035c-6.943,4.202-27.117,24.574-27.979,25.053c-12.95,7.162-39.407,14.503-75.56,22.443
			c-26.285,5.771-61.745,9.16-78.982,8.047c-33.472-2.161-86.637-11.817-108.992-12.391c6.9,3.422,15.232,6.904,22.726,8.649
			c16.044,3.737,29.505,2.232,29.505,2.232s3.63,5.653,9.338,7.449c13.919,4.377,32.882,5.609,51.622,5.75
			c7.479,0.055,21.22,2.832,32.195,1.578c17.695-2.021,32.268-8.483,32.268-8.483s15.704,1.136,28.189-1.134
			c17.465-3.174,34.572-10.728,45.938-17.267c19.014-10.938,30.448-25.31,38.48-39.601
			C354.76,134.582,355.174,133.806,355.57,133.035z"/>
	</g>
	<path fill="#351500" d="M219.154,98.911c0,0-0.932,3.109,5.597,2.487c6.53-0.622,4.043-0.312,6.53-0.622
		c2.486-0.312,16.789-6.218,20.521-6.218s31.403,3.729,24.253-0.935c-7.15-4.663-9.951-4.353-19.277-3.729
		c-9.327,0.622-15.234,4.664-23.319,5.598C225.374,96.423,225.995,95.802,219.154,98.911z"/>
	<path fill="#351500" d="M92.914,42.901c0,0-0.933,3.107,5.596,2.486c6.53-0.621,4.042-0.312,6.53-0.621
		c2.487-0.312,29.837-7.06,33.568-7.06s33.918,0.841,26.768-3.824c-7.151-4.664-30.612,1.079-39.94,1.7
		c-9.327,0.622-10.136,2.965-18.22,3.897C99.132,40.412,99.754,39.792,92.914,42.901z"/>
	<path fill="#5B2602" d="M64.687,116.064c0,0-7.474,3.812-8.084,9.762c-0.61,5.947-2.771,19.688,0.305,19.219
		c5.326-0.813,2.742-9.235,5.03-14.729C64.226,124.827,64.687,116.064,64.687,116.064z"/>
	<path fill="#70330A" d="M66.848,120.373c0,0,17.052,1.215,25.032,2c7.98,0.783,22.432,6.883,22.276,8.326
		c-0.11,1.016-7.316,1.406-14.712-0.285c-7.833-1.791-26.124-1.646-30.826-3.857c-2.145-1.01-6.728,9.429-7.367,8.226
		C60.489,133.347,64.084,120.353,66.848,120.373z"/>
	<path fill="#351500" d="M53.836,114.784l1.939,6.188c0,0,0,3.614-0.158,4.297c-0.157,0.682-0.209,3.25-0.209,3.25
		s-0.706,13.771-0.758,13.979c-0.053,0.21,3.421-16.674,3.563-20.809c0.143-4.133-4.534-7.168-4.534-7.168"/>
</g>
</svg>
