<?xml version="1.0" encoding="utf-8"?>
<!-- Generator: Adobe Illustrator 16.0.4, SVG Export Plug-In . SVG Version: 6.00 Build 0)  -->
<!DOCTYPE svg PUBLIC "-//W3C//DTD SVG 1.1//EN" "http://www.w3.org/Graphics/SVG/1.1/DTD/svg11.dtd">
<svg version="1.1" id="Layer_1" xmlns="http://www.w3.org/2000/svg" xmlns:xlink="http://www.w3.org/1999/xlink" x="0px" y="0px"
	 width="375px" height="225px" viewBox="0 0 375 225" enable-background="new 0 0 375 225" xml:space="preserve">
<g>
	<radialGradient id="SVGID_1_" cx="184.2578" cy="59.0415" r="300.3627" gradientUnits="userSpaceOnUse">
		<stop  offset="0" style="stop-color:#CC6F00"/>
		<stop  offset="1" style="stop-color:#9E4400"/>
	</radialGradient>
	<path fill="url(#SVGID_1_)" d="M350.165,130.585c-19.621,60.486-68.434,86.997-163.441,86.997
		c-95.006,0-140.825-27.148-164.674-86.997c-2.033-5.105-7.402-36.5-7.402-44.543c16.037-36.271,88.946-39.985,172.076-39.985
		c83.85,0,157.274-0.431,172.077,36.309C358.801,90.969,351.759,125.675,350.165,130.585z"/>
	<g>
		<path fill="#EEE2D2" d="M357.483,85.344c0,43.96-75.784,79.595-170.79,79.595c-95.007,0-170.79-35.635-170.79-79.595
			c0-29.459,31.056-54.358,82.102-68.121c2.421-0.653,5.765,1.957,8.264,1.358c2.131-0.51,6.316-4.53,8.5-5
			c21.792-4.688,46.187-7.832,71.924-7.832C281.699,5.749,357.483,41.386,357.483,85.344z"/>
		<path fill="#EAAC60" d="M186.693,167.565c-46.25,0-89.625-8.366-122.135-23.559c-33.069-15.455-51.282-36.288-51.282-58.663
			c0-22.373,18.212-43.208,51.282-58.661c8.794-4.11,18.537-7.096,31.744-10.003c2.449-0.539,6.713,0.746,9.235,0.245
			c2.524-0.501,10.463-4.141,13.041-4.602c19.276-3.46,34.722-5.015,51.328-6.573c5.339-0.501,7.528,1.767,12.079,1.502
			c5.039-0.294,7.741-3.269,13.915-3.269c17.101,0,20.643,0.202,37.22,2.412c0.534,3.195,5.521,3.612,8.565,4.098
			c3.358,0.537,7.945-1.548,11.226-0.923c14.938,2.842,29.021,6.596,41.597,11.195c1.596,4.797,1.336,6.258,5.841,8.363
			c7.679,2.112,10.735-1.763,11.185-1.549c14.124,6.742,23.997,14.116,32.277,22.549c0.136,3.229,1.021,6.022,2.695,8.197
			c1.368,1.779,5.145,4.084,6.903,4.004c4.519,7.441,6.702,15.004,6.702,23.016c0,22.375-18.212,43.208-51.283,58.663
			C276.318,159.199,232.943,167.565,186.693,167.565z M186.693,8.376C93.967,8.376,18.53,42.904,18.53,85.344
			s75.437,76.968,168.163,76.968c92.726,0,168.163-34.528,168.163-76.968S279.419,8.376,186.693,8.376z"/>
	</g>
	<g opacity="0.3">
		<g>
			<path fill="#FFF6EE" d="M175.012,98.66c0,0.922-2.428,1.669-5.421,1.669c-2.995,0-5.421-0.748-5.421-1.669
				c0-0.203-0.221-1.365,0-1.546c0.768-0.634,3.092-0.122,5.421-0.122c2.35,0,4.669-0.523,5.421,0.122
				C175.218,97.29,175.012,98.463,175.012,98.66z"/>
			<path fill="#DDB08C" d="M164.163,95.032c0-0.922,2.427-1.669,5.421-1.669s5.421,0.747,5.421,1.669c0,0.206,0.219,1.365,0,1.546
				c-0.768,0.634-3.094,0.123-5.421,0.123c-2.352,0-4.67,0.521-5.421-0.123C163.958,96.402,164.163,95.231,164.163,95.032z"/>
			<ellipse fill="#EDD6BC" cx="169.591" cy="97.114" rx="5.421" ry="1.669"/>
		</g>
		<g>
			<path fill="#FFF6EE" d="M206.281,120.245c0,1.211-3.188,2.19-7.12,2.19c-3.934,0-7.121-0.979-7.121-2.19
				c0-0.271-0.289-1.794,0-2.032c1.009-0.833,4.063-0.16,7.121-0.16c3.087,0,6.133-0.687,7.12,0.16
				C206.551,118.444,206.281,119.985,206.281,120.245z"/>
			<path fill="#DDB08C" d="M192.031,115.479c0-1.209,3.188-2.191,7.121-2.191c3.932,0,7.12,0.982,7.12,2.191
				c0,0.271,0.289,1.794,0,2.031c-1.009,0.833-4.062,0.161-7.12,0.161c-3.089,0-6.135,0.686-7.121-0.161
				C191.761,117.279,192.031,115.738,192.031,115.479z"/>
			<ellipse fill="#EDD6BC" cx="199.161" cy="118.213" rx="7.121" ry="2.192"/>
		</g>
		<g>
			<path fill="#FFF6EE" d="M325.9,72.209c0,1.211-3.188,2.193-7.121,2.193c-3.933,0-7.12-0.982-7.12-2.193
				c0-0.268-0.289-1.792,0-2.032c1.009-0.833,4.062-0.161,7.12-0.161c3.088,0,6.134-0.684,7.121,0.161
				C326.171,70.41,325.9,71.949,325.9,72.209z"/>
			<path fill="#DDB08C" d="M311.65,67.444c0-1.211,3.188-2.192,7.122-2.192c3.932,0,7.119,0.981,7.119,2.192
				c0,0.269,0.289,1.792,0,2.03c-1.007,0.834-4.062,0.161-7.119,0.161c-3.089,0-6.135,0.686-7.122-0.161
				C311.381,69.244,311.65,67.705,311.65,67.444z"/>
			<ellipse fill="#EDD6BC" cx="318.78" cy="70.177" rx="7.121" ry="2.193"/>
		</g>
		<g>
			<path fill="#FFF6EE" d="M82.628,85.718c0,1.211-3.188,2.193-7.12,2.193c-3.934,0-7.122-0.982-7.122-2.193
				c0-0.269-0.287-1.792,0-2.03c1.009-0.834,4.063-0.161,7.122-0.161c3.087,0,6.133-0.686,7.12,0.161
				C82.898,83.919,82.628,85.458,82.628,85.718z"/>
			<path fill="#DDB08C" d="M68.379,80.954c0-1.211,3.189-2.192,7.121-2.192c3.932,0,7.122,0.981,7.122,2.192
				c0,0.269,0.287,1.794,0,2.032c-1.009,0.833-4.063,0.161-7.122,0.161c-3.087,0-6.133,0.684-7.121-0.161
				C68.11,82.754,68.379,81.214,68.379,80.954z"/>
			<ellipse fill="#EDD6BC" cx="75.508" cy="83.688" rx="7.121" ry="2.191"/>
		</g>
		<g>
			<path fill="#FFF6EE" d="M105.478,108.235c0,1.211-3.188,2.193-7.12,2.193c-3.934,0-7.121-0.982-7.121-2.193
				c0-0.269-0.288-1.792,0-2.032c1.009-0.833,4.063-0.161,7.121-0.161c3.087,0,6.133-0.684,7.12,0.161
				C105.748,106.437,105.478,107.976,105.478,108.235z"/>
			<path fill="#DDB08C" d="M91.228,103.471c0-1.211,3.188-2.192,7.122-2.192c3.932,0,7.12,0.981,7.12,2.192
				c0,0.269,0.289,1.792,0,2.03c-1.007,0.834-4.062,0.161-7.12,0.161c-3.089,0-6.133,0.686-7.122-0.161
				C90.958,105.27,91.228,103.731,91.228,103.471z"/>
			<ellipse fill="#EDD6BC" cx="98.357" cy="106.204" rx="7.121" ry="2.193"/>
		</g>
		<g>
			<path fill="#FFF6EE" d="M205.681,46.737c0,1.209-3.188,2.191-7.12,2.191s-7.119-0.982-7.119-2.191c0-0.27-0.289-1.794,0-2.032
				c1.007-0.833,4.062-0.161,7.119-0.161c3.087,0,6.133-0.686,7.12,0.161C205.951,44.936,205.681,46.475,205.681,46.737z"/>
			<path fill="#DDB08C" d="M191.433,41.97c0-1.21,3.188-2.192,7.119-2.192c3.934,0,7.122,0.982,7.122,2.192
				c0,0.271,0.287,1.794,0,2.032c-1.009,0.833-4.063,0.161-7.122,0.161c-3.087,0-6.133,0.686-7.119-0.161
				C191.162,43.771,191.433,42.23,191.433,41.97z"/>
			<ellipse fill="#EDD6BC" cx="198.561" cy="44.705" rx="7.12" ry="2.191"/>
		</g>
		<g>
			<path fill="#FFF6EE" d="M63.812,103.732c0,1.211-3.188,2.192-7.122,2.192c-3.932,0-7.12-0.981-7.12-2.192
				c0-0.269-0.289-1.794,0-2.032c1.009-0.833,4.062-0.161,7.12-0.161c3.089,0,6.135-0.686,7.122,0.161
				C64.083,101.932,63.812,103.473,63.812,103.732z"/>
			<path fill="#DDB08C" d="M49.562,98.968c0-1.211,3.188-2.192,7.122-2.192c3.932,0,7.12,0.981,7.12,2.192
				c0,0.269,0.289,1.792,0,2.03c-1.009,0.835-4.062,0.161-7.12,0.161c-3.089,0-6.135,0.686-7.122-0.161
				C49.292,100.767,49.562,99.228,49.562,98.968z"/>
			<ellipse fill="#EDD6BC" cx="56.692" cy="101.701" rx="7.121" ry="2.192"/>
		</g>
		<g>
			<path fill="#FFF6EE" d="M276.916,66.89c0,1.211-3.188,2.191-7.122,2.191c-3.932,0-7.119-0.98-7.119-2.191
				c0-0.27-0.289-1.794,0-2.032c1.009-0.833,4.062-0.161,7.119-0.161c3.089,0,6.135-0.686,7.122,0.161
				C277.186,65.089,276.916,66.63,276.916,66.89z"/>
			<path fill="#DDB08C" d="M262.666,62.124c0-1.211,3.188-2.191,7.121-2.191c3.932,0,7.12,0.98,7.12,2.191
				c0,0.27,0.289,1.794,0,2.032c-1.009,0.833-4.062,0.161-7.12,0.161c-3.089,0-6.135,0.686-7.121-0.161
				C262.396,63.925,262.666,62.384,262.666,62.124z"/>
			<ellipse fill="#EDD6BC" cx="269.795" cy="64.858" rx="7.121" ry="2.193"/>
		</g>
		<g>
			<path fill="#FFF6EE" d="M153.562,52.088c0,1.21-3.188,2.19-7.12,2.19c-3.932,0-7.12-0.98-7.12-2.19c0-0.271-0.289-1.794,0-2.032
				c1.007-0.833,4.062-0.161,7.12-0.161c3.087,0,6.133-0.686,7.12,0.161C153.833,50.287,153.562,51.828,153.562,52.088z"/>
			<path fill="#DDB08C" d="M139.314,47.322c0-1.211,3.188-2.191,7.12-2.191c3.934,0,7.122,0.98,7.122,2.191
				c0,0.27,0.287,1.794,0,2.032c-1.009,0.833-4.063,0.161-7.122,0.161c-3.087,0-6.133,0.686-7.12-0.161
				C139.044,49.123,139.314,47.582,139.314,47.322z"/>
			<ellipse fill="#EDD6BC" cx="146.443" cy="50.057" rx="7.12" ry="2.19"/>
		</g>
		<g>
			<path fill="#FFF6EE" d="M233.906,49.738c0,1.211-3.188,2.192-7.121,2.192c-3.932,0-7.12-0.981-7.12-2.192
				c0-0.269-0.289-1.792,0-2.032c1.009-0.833,4.062-0.161,7.12-0.161c3.089,0,6.135-0.684,7.121,0.161
				C234.177,47.939,233.906,49.479,233.906,49.738z"/>
			<path fill="#DDB08C" d="M219.656,44.974c0-1.211,3.188-2.192,7.122-2.192c3.932,0,7.119,0.981,7.119,2.192
				c0,0.269,0.289,1.792,0,2.03c-1.009,0.834-4.062,0.161-7.119,0.161c-3.089,0-6.135,0.686-7.122-0.161
				C219.387,46.773,219.656,45.233,219.656,44.974z"/>
			<ellipse fill="#EDD6BC" cx="226.786" cy="47.707" rx="7.121" ry="2.192"/>
		</g>
		<g>
			<path fill="#FFF6EE" d="M239.281,61.748c0,1.211-3.188,2.191-7.119,2.191c-3.934,0-7.122-0.98-7.122-2.191
				c0-0.27-0.287-1.794,0-2.032c1.01-0.833,4.063-0.161,7.122-0.161c3.087,0,6.133-0.686,7.119,0.161
				C239.552,59.947,239.281,61.488,239.281,61.748z"/>
			<path fill="#DDB08C" d="M225.033,56.981c0-1.211,3.188-2.191,7.12-2.191c3.934,0,7.12,0.98,7.12,2.191
				c0,0.27,0.289,1.794,0,2.032c-1.008,0.833-4.062,0.161-7.12,0.161c-3.087,0-6.133,0.686-7.12-0.161
				C224.764,58.782,225.033,57.241,225.033,56.981z"/>
			<ellipse fill="#EDD6BC" cx="232.161" cy="59.716" rx="7.121" ry="2.191"/>
		</g>
		<g>
			<path fill="#FFF6EE" d="M154.607,25.721c0,1.209-3.188,2.191-7.12,2.191c-3.934,0-7.122-0.981-7.122-2.191
				c0-0.27-0.287-1.794,0-2.032c1.009-0.833,4.063-0.161,7.122-0.161c3.087,0,6.133-0.686,7.12,0.161
				C154.878,23.92,154.607,25.461,154.607,25.721z"/>
			<path fill="#DDB08C" d="M140.358,20.955c0-1.211,3.188-2.191,7.121-2.191c3.932,0,7.12,0.98,7.12,2.191
				c0,0.27,0.289,1.794,0,2.032c-1.009,0.833-4.062,0.161-7.12,0.161c-3.088,0-6.134,0.686-7.121-0.161
				C140.087,22.756,140.358,21.215,140.358,20.955z"/>
			<ellipse fill="#EDD6BC" cx="147.487" cy="23.689" rx="7.121" ry="2.191"/>
		</g>
		<g>
			<path fill="#FFF6EE" d="M196.354,62.981c0,1.21-3.188,2.19-7.12,2.19c-3.932,0-7.121-0.98-7.121-2.19
				c0-0.271-0.287-1.794,0-2.032c1.009-0.833,4.063-0.161,7.121-0.161c3.087,0,6.134-0.686,7.12,0.161
				C196.625,61.18,196.354,62.721,196.354,62.981z"/>
			<path fill="#DDB08C" d="M182.106,58.216c0-1.21,3.188-2.192,7.12-2.192c3.934,0,7.121,0.982,7.121,2.192
				c0,0.269,0.287,1.792,0,2.03c-1.009,0.834-4.063,0.161-7.121,0.161c-3.087,0-6.133,0.686-7.12-0.161
				C181.836,60.015,182.106,58.474,182.106,58.216z"/>
			<ellipse fill="#EDD6BC" cx="189.234" cy="60.949" rx="7.121" ry="2.193"/>
		</g>
		<g>
			<path fill="#FFF6EE" d="M125.638,82.717c0,1.211-3.188,2.193-7.12,2.193c-3.932,0-7.122-0.982-7.122-2.193
				c0-0.269-0.287-1.794,0-2.032c1.009-0.833,4.063-0.161,7.122-0.161c3.087,0,6.133-0.686,7.12,0.161
				C125.908,80.916,125.638,82.457,125.638,82.717z"/>
			<path fill="#DDB08C" d="M111.39,77.952c0-1.211,3.188-2.192,7.12-2.192c3.934,0,7.122,0.981,7.122,2.192
				c0,0.269,0.287,1.792,0,2.03c-1.009,0.834-4.063,0.161-7.122,0.161c-3.087,0-6.133,0.686-7.12-0.161
				C111.119,79.751,111.39,78.212,111.39,77.952z"/>
			<ellipse fill="#EDD6BC" cx="118.517" cy="80.685" rx="7.121" ry="2.193"/>
		</g>
		<g>
			<path fill="#FFF6EE" d="M128.326,123.246c0,1.211-3.188,2.192-7.12,2.192c-3.934,0-7.122-0.981-7.122-2.192
				c0-0.269-0.289-1.792,0-2.031c1.009-0.833,4.063-0.159,7.122-0.159c3.087,0,6.133-0.686,7.12,0.159
				C128.596,121.447,128.326,122.986,128.326,123.246z"/>
			<path fill="#DDB08C" d="M114.076,118.481c0-1.211,3.188-2.192,7.122-2.192c3.932,0,7.12,0.981,7.12,2.192
				c0,0.269,0.289,1.792,0,2.032c-1.007,0.833-4.062,0.159-7.12,0.159c-3.088,0-6.133,0.686-7.122-0.159
				C113.806,120.28,114.076,118.741,114.076,118.481z"/>
			<ellipse fill="#EDD6BC" cx="121.206" cy="121.215" rx="7.121" ry="2.192"/>
		</g>
		<g>
			<path fill="#FFF6EE" d="M213,90.223c0,1.209-3.188,2.191-7.119,2.191s-7.122-0.982-7.122-2.191c0-0.27-0.287-1.794,0-2.032
				c1.01-0.833,4.063-0.161,7.122-0.161c3.087,0,6.133-0.686,7.119,0.161C213.271,88.422,213,89.963,213,90.223z"/>
			<path fill="#DDB08C" d="M198.752,85.457c0-1.21,3.188-2.19,7.12-2.19c3.934,0,7.121,0.98,7.121,2.19c0,0.269,0.288,1.794,0,2.032
				c-1.009,0.833-4.063,0.161-7.121,0.161c-3.087,0-6.133,0.686-7.12-0.161C198.482,87.258,198.752,85.717,198.752,85.457z"/>
			<ellipse fill="#EDD6BC" cx="205.879" cy="88.191" rx="7.121" ry="2.191"/>
		</g>
		<g>
			<path fill="#FFF6EE" d="M289.012,52.74c0,1.211-3.188,2.192-7.121,2.192c-3.932,0-7.12-0.981-7.12-2.192
				c0-0.269-0.289-1.792,0-2.03c1.01-0.835,4.062-0.161,7.12-0.161c3.089,0,6.135-0.686,7.121,0.161
				C289.282,50.94,289.012,52.48,289.012,52.74z"/>
			<path fill="#DDB08C" d="M274.763,47.975c0-1.211,3.188-2.192,7.119-2.192c3.934,0,7.122,0.981,7.122,2.192
				c0,0.269,0.289,1.794,0,2.032c-1.01,0.833-4.063,0.161-7.122,0.161c-3.087,0-6.133,0.684-7.119-0.161
				C274.492,49.776,274.763,48.235,274.763,47.975z"/>
			<ellipse fill="#EDD6BC" cx="281.891" cy="50.71" rx="7.121" ry="2.19"/>
		</g>
		<g>
			<path fill="#FFF6EE" d="M178.057,112.739c0,1.21-3.188,2.192-7.122,2.192c-3.932,0-7.12-0.981-7.12-2.192
				c0-0.269-0.289-1.792,0-2.032c1.007-0.833,4.062-0.159,7.12-0.159c3.089,0,6.133-0.686,7.122,0.159
				C178.327,110.939,178.057,112.479,178.057,112.739z"/>
			<path fill="#DDB08C" d="M163.807,107.974c0-1.21,3.188-2.192,7.12-2.192c3.934,0,7.121,0.982,7.121,2.192
				c0,0.269,0.288,1.792,0,2.032c-1.009,0.833-4.063,0.159-7.121,0.159c-3.087,0-6.133,0.686-7.12-0.159
				C163.537,109.773,163.807,108.234,163.807,107.974z"/>
			<ellipse fill="#EDD6BC" cx="170.936" cy="110.707" rx="7.121" ry="2.192"/>
		</g>
		<g>
			<path fill="#FFF6EE" d="M268.104,80.316c0,0.754-1.984,1.365-4.432,1.365s-4.431-0.611-4.431-1.365c0-0.168-0.18-1.115,0-1.264
				c0.627-0.518,2.527-0.099,4.431-0.099c1.921,0,3.815-0.428,4.432,0.099C268.271,79.196,268.104,80.153,268.104,80.316z"/>
			<path fill="#DDB08C" d="M259.236,77.35c0-0.752,1.984-1.363,4.432-1.363s4.43,0.61,4.43,1.363c0,0.167,0.182,1.117,0,1.264
				c-0.626,0.518-2.528,0.101-4.43,0.101c-1.922,0-3.817,0.426-4.432-0.101C259.067,78.47,259.236,77.513,259.236,77.35z"/>
			<ellipse fill="#EDD6BC" cx="263.673" cy="79.052" rx="4.431" ry="1.363"/>
		</g>
		<g>
			<path fill="#FFF6EE" d="M238.534,84.819c0,0.754-1.983,1.365-4.432,1.365c-2.447,0-4.431-0.61-4.431-1.365
				c0-0.167-0.178-1.115,0-1.264c0.629-0.519,2.529-0.1,4.431-0.1c1.923,0,3.817-0.427,4.432,0.1
				C238.702,83.699,238.534,84.658,238.534,84.819z"/>
			<path fill="#DDB08C" d="M229.668,81.854c0-0.753,1.984-1.363,4.43-1.363c2.447,0,4.432,0.61,4.432,1.363
				c0,0.167,0.18,1.117,0,1.264c-0.628,0.52-2.528,0.101-4.432,0.101c-1.92,0-3.815,0.426-4.43-0.101
				C229.499,82.974,229.668,82.016,229.668,81.854z"/>
			<ellipse fill="#EDD6BC" cx="234.103" cy="83.555" rx="4.431" ry="1.363"/>
		</g>
		<g>
			<path fill="#FFF6EE" d="M274.824,99.83c0,0.754-1.984,1.365-4.432,1.365s-4.432-0.61-4.432-1.365c0-0.167-0.179-1.115,0-1.264
				c0.628-0.519,2.528-0.099,4.432-0.099c1.923,0,3.817-0.428,4.432,0.099C274.991,98.709,274.824,99.669,274.824,99.83z"/>
			<path fill="#DDB08C" d="M265.956,96.864c0-0.752,1.984-1.363,4.432-1.363s4.431,0.611,4.431,1.363c0,0.167,0.18,1.117,0,1.266
				c-0.627,0.518-2.527,0.099-4.431,0.099c-1.921,0-3.817,0.426-4.432-0.099C265.789,97.984,265.956,97.026,265.956,96.864z"/>
			<ellipse fill="#EDD6BC" cx="270.393" cy="98.566" rx="4.432" ry="1.365"/>
		</g>
		<g>
			<path fill="#FFF6EE" d="M301.704,90.824c0,0.752-1.982,1.365-4.43,1.365s-4.432-0.612-4.432-1.365c0-0.168-0.18-1.115,0-1.264
				c0.628-0.518,2.528-0.099,4.432-0.099c1.921,0,3.815-0.428,4.43,0.099C301.873,89.703,301.704,90.661,301.704,90.824z"/>
			<path fill="#DDB08C" d="M292.838,87.858c0-0.752,1.984-1.363,4.432-1.363s4.431,0.61,4.431,1.363c0,0.167,0.178,1.117,0,1.264
				c-0.629,0.519-2.529,0.101-4.431,0.101c-1.923,0-3.817,0.426-4.432-0.101C292.67,88.978,292.838,88.021,292.838,87.858z"/>
			<ellipse fill="#EDD6BC" cx="297.273" cy="89.56" rx="4.431" ry="1.363"/>
		</g>
		<g>
			<path fill="#FFF6EE" d="M290.953,75.812c0,0.753-1.983,1.365-4.432,1.365c-2.447,0-4.431-0.612-4.431-1.365
				c0-0.167-0.18-1.117,0-1.264c0.628-0.518,2.527-0.101,4.431-0.101c1.921,0,3.816-0.426,4.432,0.101
				C291.121,74.692,290.953,75.65,290.953,75.812z"/>
			<path fill="#DDB08C" d="M282.086,72.847c0-0.752,1.983-1.365,4.431-1.365c2.446,0,4.43,0.612,4.43,1.365
				c0,0.167,0.182,1.115,0,1.264c-0.628,0.519-2.527,0.099-4.43,0.099c-1.922,0-3.817,0.428-4.431-0.099
				C281.916,73.967,282.086,73.01,282.086,72.847z"/>
			<ellipse fill="#EDD6BC" cx="286.522" cy="74.549" rx="4.431" ry="1.363"/>
		</g>
		<g>
			<path fill="#FFF6EE" d="M343.37,72.811c0,0.753-1.983,1.363-4.431,1.363s-4.432-0.61-4.432-1.363c0-0.167-0.18-1.117,0-1.266
				c0.628-0.518,2.528-0.099,4.432-0.099c1.922,0,3.817-0.426,4.431,0.099C343.538,71.691,343.37,72.649,343.37,72.811z"/>
			<path fill="#DDB08C" d="M334.503,69.846c0-0.754,1.983-1.365,4.432-1.365c2.447,0,4.431,0.61,4.431,1.365
				c0,0.167,0.18,1.115,0,1.264c-0.628,0.519-2.529,0.099-4.431,0.099c-1.923,0-3.817,0.426-4.432-0.099
				C334.335,70.966,334.503,70.006,334.503,69.846z"/>
			<ellipse fill="#EDD6BC" cx="338.939" cy="71.545" rx="4.431" ry="1.365"/>
		</g>
		<g>
			<path fill="#FFF6EE" d="M254.664,98.33c0,0.752-1.984,1.363-4.432,1.363s-4.432-0.611-4.432-1.363c0-0.167-0.18-1.117,0-1.266
				c0.628-0.518,2.528-0.099,4.432-0.099c1.921,0,3.817-0.426,4.432,0.099C254.831,97.209,254.664,98.167,254.664,98.33z"/>
			<path fill="#DDB08C" d="M245.796,95.364c0-0.754,1.984-1.365,4.432-1.365s4.431,0.61,4.431,1.365c0,0.167,0.18,1.115,0,1.264
				c-0.627,0.519-2.527,0.099-4.431,0.099c-1.921,0-3.817,0.428-4.432-0.099C245.628,96.484,245.796,95.525,245.796,95.364z"/>
			<ellipse fill="#EDD6BC" cx="250.232" cy="97.064" rx="4.432" ry="1.365"/>
		</g>
		<g>
			<path fill="#FFF6EE" d="M219.718,105.834c0,0.754-1.983,1.365-4.431,1.365s-4.432-0.611-4.432-1.365c0-0.168-0.18-1.115,0-1.264
				c0.628-0.518,2.528-0.099,4.432-0.099c1.922,0,3.817-0.428,4.431,0.099C219.886,104.714,219.718,105.673,219.718,105.834z"/>
			<path fill="#DDB08C" d="M210.851,102.869c0-0.752,1.983-1.363,4.432-1.363c2.447,0,4.431,0.61,4.431,1.363
				c0,0.167,0.18,1.117,0,1.264c-0.628,0.52-2.527,0.101-4.431,0.101c-1.923,0-3.817,0.426-4.432-0.101
				C210.683,103.989,210.851,103.031,210.851,102.869z"/>
			<ellipse fill="#EDD6BC" cx="215.287" cy="104.57" rx="4.431" ry="1.363"/>
		</g>
		<g>
			<path fill="#FFF6EE" d="M132.328,94.418c0,0.292-0.77,0.528-1.717,0.528c-0.947,0-1.717-0.236-1.717-0.528
				c0-0.065-0.07-0.433,0-0.489c0.243-0.202,0.98-0.039,1.717-0.039c0.744,0,1.479-0.166,1.717,0.039
				C132.393,93.984,132.328,94.355,132.328,94.418z"/>
			<path fill="#DDB08C" d="M128.892,93.269c0-0.291,0.768-0.528,1.717-0.528c0.947,0,1.717,0.238,1.717,0.528
				c0,0.065,0.069,0.433,0,0.491c-0.244,0.2-0.979,0.038-1.717,0.038c-0.746,0-1.479,0.166-1.717-0.038
				C128.827,93.704,128.892,93.333,128.892,93.269z"/>
			<ellipse fill="#EDD6BC" cx="130.611" cy="93.929" rx="1.717" ry="0.529"/>
		</g>
		<g>
			<path fill="#FFF6EE" d="M255.407,62.348c0,0.754-1.983,1.365-4.431,1.365s-4.432-0.611-4.432-1.365c0-0.168-0.178-1.115,0-1.264
				c0.63-0.518,2.529-0.099,4.432-0.099c1.922,0,3.817-0.428,4.431,0.099C255.575,61.228,255.407,62.187,255.407,62.348z"/>
			<path fill="#DDB08C" d="M246.54,59.382c0-0.752,1.983-1.363,4.431-1.363c2.448,0,4.432,0.61,4.432,1.363
				c0,0.167,0.18,1.117,0,1.264c-0.628,0.518-2.527,0.101-4.432,0.101c-1.92,0-3.816,0.426-4.431-0.101
				C246.372,60.502,246.54,59.545,246.54,59.382z"/>
			<ellipse fill="#EDD6BC" cx="250.976" cy="61.084" rx="4.431" ry="1.363"/>
		</g>
		<g>
			<path fill="#FFF6EE" d="M268.849,51.84c0,0.754-1.984,1.365-4.432,1.365s-4.431-0.611-4.431-1.365c0-0.167-0.18-1.115,0-1.264
				c0.627-0.518,2.527-0.099,4.431-0.099c1.923,0,3.817-0.427,4.432,0.099C269.016,50.72,268.849,51.68,268.849,51.84z"/>
			<path fill="#DDB08C" d="M259.98,48.875c0-0.752,1.984-1.363,4.432-1.363s4.431,0.61,4.431,1.363c0,0.167,0.18,1.117,0,1.264
				c-0.627,0.52-2.527,0.101-4.431,0.101c-1.921,0-3.817,0.426-4.432-0.101C259.813,49.995,259.98,49.037,259.98,48.875z"/>
			<ellipse fill="#EDD6BC" cx="264.417" cy="50.576" rx="4.431" ry="1.365"/>
		</g>
		<g>
			<path fill="#FFF6EE" d="M148.483,131.353c0,0.755-1.984,1.365-4.429,1.365c-2.447,0-4.432-0.61-4.432-1.365
				c0-0.167-0.179-1.115,0-1.264c0.628-0.519,2.528-0.099,4.432-0.099c1.92,0,3.815-0.428,4.429,0.099
				C148.652,130.232,148.483,131.192,148.483,131.353z"/>
			<path fill="#DDB08C" d="M139.617,128.388c0-0.753,1.984-1.363,4.431-1.363s4.431,0.61,4.431,1.363c0,0.167,0.178,1.116,0,1.264
				c-0.629,0.52-2.529,0.101-4.431,0.101c-1.922,0-3.817,0.426-4.431-0.101C139.45,129.508,139.617,128.55,139.617,128.388z"/>
			<ellipse fill="#EDD6BC" cx="144.052" cy="130.089" rx="4.43" ry="1.365"/>
		</g>
		<g>
			<path fill="#FFF6EE" d="M109.507,62.304c0,0.752-1.984,1.363-4.432,1.363c-2.447,0-4.431-0.61-4.431-1.363
				c0-0.168-0.18-1.117,0-1.266c0.628-0.519,2.528-0.1,4.431-0.1c1.922,0,3.817-0.426,4.432,0.1
				C109.674,61.183,109.507,62.141,109.507,62.304z"/>
			<path fill="#DDB08C" d="M100.639,59.338c0-0.754,1.984-1.365,4.431-1.365s4.431,0.61,4.431,1.365c0,0.167,0.18,1.115,0,1.264
				c-0.627,0.519-2.528,0.1-4.431,0.1c-1.921,0-3.817,0.427-4.431-0.1C100.471,60.458,100.639,59.499,100.639,59.338z"/>
			<ellipse fill="#EDD6BC" cx="105.075" cy="61.038" rx="4.431" ry="1.365"/>
		</g>
		<g>
			<path fill="#FFF6EE" d="M141.736,109.429c0,0.292-0.768,0.528-1.717,0.528c-0.947,0-1.717-0.236-1.717-0.528
				c0-0.065-0.07-0.433,0-0.489c0.243-0.202,0.98-0.039,1.717-0.039c0.744,0,1.479-0.166,1.717,0.039
				C141.801,108.995,141.736,109.368,141.736,109.429z"/>
			<path fill="#DDB08C" d="M138.3,108.28c0-0.291,0.768-0.528,1.717-0.528c0.947,0,1.717,0.238,1.717,0.528
				c0,0.065,0.068,0.433,0,0.491c-0.243,0.2-0.98,0.038-1.717,0.038c-0.746,0-1.479,0.166-1.717-0.038
				C138.235,108.714,138.3,108.343,138.3,108.28z"/>
			<ellipse fill="#EDD6BC" cx="140.019" cy="108.94" rx="1.717" ry="0.529"/>
		</g>
		<g>
			<path fill="#FFF6EE" d="M176.682,122.94c0,0.29-0.77,0.528-1.717,0.528c-0.949,0-1.717-0.238-1.717-0.528
				c0-0.065-0.07-0.433,0-0.491c0.243-0.2,0.98-0.037,1.717-0.037c0.744,0,1.479-0.166,1.717,0.037
				C176.747,122.506,176.682,122.877,176.682,122.94z"/>
			<path fill="#DDB08C" d="M173.246,121.791c0-0.293,0.768-0.528,1.717-0.528c0.947,0,1.717,0.235,1.717,0.528
				c0,0.064,0.068,0.433,0,0.489c-0.244,0.201-0.98,0.039-1.717,0.039c-0.744,0-1.479,0.164-1.717-0.039
				C173.181,122.224,173.246,121.853,173.246,121.791z"/>
			<ellipse fill="#EDD6BC" cx="174.965" cy="122.449" rx="1.717" ry="0.528"/>
		</g>
		<g>
			<path fill="#FFF6EE" d="M239.852,109.429c0,0.292-0.769,0.528-1.718,0.528c-0.947,0-1.717-0.236-1.717-0.528
				c0-0.065-0.068-0.433,0-0.489c0.243-0.202,0.979-0.039,1.717-0.039c0.746,0,1.479-0.166,1.718,0.039
				C239.916,108.995,239.852,109.368,239.852,109.429z"/>
			<path fill="#DDB08C" d="M236.415,108.28c0-0.291,0.769-0.528,1.718-0.528c0.947,0,1.717,0.238,1.717,0.528
				c0,0.065,0.07,0.433,0,0.491c-0.243,0.2-0.98,0.038-1.717,0.038c-0.744,0-1.479,0.166-1.718-0.038
				C236.351,108.714,236.415,108.343,236.415,108.28z"/>
			<ellipse fill="#EDD6BC" cx="238.134" cy="108.94" rx="1.717" ry="0.529"/>
		</g>
		<g>
			<path fill="#FFF6EE" d="M298.989,77.906c0,0.292-0.77,0.528-1.717,0.528c-0.949,0-1.717-0.236-1.717-0.528
				c0-0.065-0.07-0.433,0-0.489c0.243-0.202,0.979-0.04,1.717-0.04c0.744,0,1.479-0.164,1.717,0.04
				C299.055,77.473,298.989,77.844,298.989,77.906z"/>
			<path fill="#DDB08C" d="M295.554,76.757c0-0.291,0.768-0.528,1.717-0.528c0.948,0,1.718,0.237,1.718,0.528
				c0,0.065,0.068,0.433,0,0.491c-0.245,0.2-0.98,0.04-1.718,0.04c-0.745,0-1.479,0.164-1.717-0.04
				C295.489,77.191,295.554,76.82,295.554,76.757z"/>
			<ellipse fill="#EDD6BC" cx="297.272" cy="77.417" rx="1.717" ry="0.528"/>
		</g>
		<g>
			<path fill="#FFF6EE" d="M280.172,85.412c0,0.292-0.768,0.529-1.717,0.529c-0.948,0-1.718-0.236-1.718-0.529
				c0-0.065-0.068-0.433,0-0.491c0.245-0.2,0.98-0.038,1.718-0.038c0.745,0,1.479-0.166,1.717,0.038
				C280.237,84.978,280.172,85.349,280.172,85.412z"/>
			<path fill="#DDB08C" d="M276.736,84.263c0-0.292,0.77-0.529,1.717-0.529c0.949,0,1.717,0.236,1.717,0.529
				c0,0.065,0.07,0.433,0,0.489c-0.242,0.202-0.979,0.04-1.717,0.04c-0.744,0-1.479,0.166-1.717-0.04
				C276.671,84.697,276.736,84.326,276.736,84.263z"/>
			<ellipse fill="#EDD6BC" cx="278.455" cy="84.921" rx="1.717" ry="0.53"/>
		</g>
		<g>
			<path fill="#FFF6EE" d="M90.663,116.936c0,0.292-0.77,0.528-1.717,0.528c-0.949,0-1.717-0.236-1.717-0.528
				c0-0.065-0.07-0.433,0-0.491c0.243-0.2,0.978-0.037,1.717-0.037c0.744,0,1.478-0.166,1.717,0.037
				C90.728,116.501,90.663,116.872,90.663,116.936z"/>
			<path fill="#DDB08C" d="M87.227,115.786c0-0.292,0.768-0.528,1.717-0.528c0.947,0,1.715,0.236,1.715,0.528
				c0,0.065,0.07,0.433,0,0.489c-0.243,0.202-0.978,0.039-1.715,0.039c-0.746,0-1.479,0.166-1.717-0.039
				C87.161,116.221,87.227,115.85,87.227,115.786z"/>
			<ellipse fill="#EDD6BC" cx="88.946" cy="116.444" rx="1.717" ry="0.528"/>
		</g>
		<g>
			<path fill="#FFF6EE" d="M46.31,85.412c0,0.292-0.77,0.529-1.717,0.529c-0.949,0-1.717-0.236-1.717-0.529
				c0-0.065-0.07-0.433,0-0.491c0.243-0.2,0.98-0.038,1.717-0.038c0.744,0,1.479-0.166,1.717,0.038
				C46.375,84.978,46.31,85.349,46.31,85.412z"/>
			<path fill="#DDB08C" d="M42.874,84.263c0-0.292,0.768-0.529,1.717-0.529c0.948,0,1.717,0.236,1.717,0.529
				c0,0.065,0.068,0.433,0,0.489c-0.245,0.202-0.98,0.04-1.717,0.04c-0.746,0-1.479,0.166-1.717-0.04
				C42.809,84.697,42.874,84.326,42.874,84.263z"/>
			<ellipse fill="#EDD6BC" cx="44.593" cy="84.921" rx="1.717" ry="0.53"/>
		</g>
		<g>
			<path fill="#FFF6EE" d="M102.758,91.417c0,0.291-0.768,0.528-1.715,0.528c-0.949,0-1.717-0.238-1.717-0.528
				c0-0.065-0.07-0.433,0-0.491c0.243-0.2,0.98-0.038,1.717-0.038c0.744,0,1.478-0.166,1.715,0.038
				C102.825,90.982,102.758,91.354,102.758,91.417z"/>
			<path fill="#DDB08C" d="M99.324,90.268c0-0.292,0.768-0.528,1.717-0.528c0.947,0,1.715,0.236,1.715,0.528
				c0,0.065,0.07,0.433,0,0.489c-0.243,0.202-0.979,0.04-1.715,0.04c-0.746,0-1.479,0.166-1.717-0.04
				C99.259,90.702,99.324,90.329,99.324,90.268z"/>
			<ellipse fill="#EDD6BC" cx="101.042" cy="90.926" rx="1.716" ry="0.528"/>
		</g>
		<g>
			<path fill="#FFF6EE" d="M195.498,74.905c0,0.292-0.769,0.528-1.718,0.528c-0.947,0-1.717-0.236-1.717-0.528
				c0-0.065-0.068-0.433,0-0.491c0.243-0.2,0.98-0.038,1.717-0.038c0.746,0,1.479-0.166,1.718,0.038
				C195.562,74.47,195.498,74.841,195.498,74.905z"/>
			<path fill="#DDB08C" d="M192.062,73.755c0-0.292,0.769-0.528,1.718-0.528s1.717,0.236,1.717,0.528c0,0.065,0.07,0.433,0,0.489
				c-0.243,0.202-0.98,0.039-1.717,0.039c-0.744,0-1.479,0.166-1.718-0.039C191.997,74.189,192.062,73.818,192.062,73.755z"/>
			<ellipse fill="#EDD6BC" cx="193.781" cy="74.414" rx="1.717" ry="0.53"/>
		</g>
		<g>
			<path fill="#FFF6EE" d="M223.724,62.895c0,0.292-0.77,0.529-1.717,0.529c-0.949,0-1.718-0.236-1.718-0.529
				c0-0.065-0.07-0.433,0-0.489c0.243-0.202,0.979-0.04,1.718-0.04c0.743,0,1.478-0.164,1.717,0.04
				C223.788,62.461,223.724,62.833,223.724,62.895z"/>
			<path fill="#DDB08C" d="M220.286,61.746c0-0.291,0.77-0.529,1.717-0.529c0.949,0,1.717,0.238,1.717,0.529
				c0,0.065,0.07,0.433,0,0.491c-0.242,0.2-0.978,0.038-1.717,0.038c-0.744,0-1.478,0.166-1.717-0.038
				C220.221,62.18,220.286,61.809,220.286,61.746z"/>
			<ellipse fill="#EDD6BC" cx="222.006" cy="62.406" rx="1.717" ry="0.528"/>
		</g>
		<g>
			<path fill="#FFF6EE" d="M257.489,121.98c0,1.211-3.188,2.192-7.12,2.192c-3.934,0-7.121-0.981-7.121-2.192
				c0-0.269-0.288-1.792,0-2.031c1.009-0.833,4.063-0.161,7.121-0.161c3.087,0,6.133-0.684,7.12,0.161
				C257.759,120.182,257.489,121.721,257.489,121.98z"/>
			<path fill="#DDB08C" d="M243.239,117.216c0-1.211,3.188-2.192,7.121-2.192c3.932,0,7.12,0.981,7.12,2.192
				c0,0.269,0.289,1.793,0,2.032c-1.009,0.833-4.062,0.159-7.12,0.159c-3.089,0-6.135,0.686-7.121-0.159
				C242.969,119.016,243.239,117.476,243.239,117.216z"/>
			<ellipse fill="#EDD6BC" cx="250.369" cy="119.949" rx="7.121" ry="2.192"/>
		</g>
		<g>
			<path fill="#FFF6EE" d="M290.794,33.168c0,1.21-3.188,2.19-7.119,2.19c-3.934,0-7.122-0.98-7.122-2.19
				c0-0.271-0.289-1.794,0-2.032c1.01-0.833,4.062-0.161,7.122-0.161c3.087,0,6.133-0.686,7.119,0.161
				C291.064,31.367,290.794,32.908,290.794,33.168z"/>
			<path fill="#DDB08C" d="M276.544,28.401c0-1.209,3.188-2.191,7.122-2.191c3.932,0,7.119,0.982,7.119,2.191
				c0,0.27,0.289,1.794,0,2.032c-1.009,0.833-4.062,0.161-7.119,0.161c-3.089,0-6.135,0.686-7.122-0.161
				C276.274,30.202,276.544,28.661,276.544,28.401z"/>
			<ellipse fill="#EDD6BC" cx="283.673" cy="31.136" rx="7.121" ry="2.193"/>
		</g>
		<g>
			<path fill="#FFF6EE" d="M285.713,124.982c0,1.211-3.188,2.192-7.119,2.192c-3.933,0-7.12-0.981-7.12-2.192
				c0-0.269-0.289-1.793,0-2.03c1.007-0.833,4.062-0.161,7.12-0.161c3.087,0,6.133-0.686,7.119,0.161
				C285.983,123.183,285.713,124.723,285.713,124.982z"/>
			<path fill="#DDB08C" d="M271.465,120.218c0-1.211,3.188-2.192,7.12-2.192c3.934,0,7.121,0.981,7.121,2.192
				c0,0.27,0.287,1.794,0,2.031c-1.009,0.833-4.063,0.161-7.121,0.161c-3.087,0-6.133,0.686-7.12-0.161
				C271.194,122.019,271.465,120.478,271.465,120.218z"/>
			<ellipse fill="#EDD6BC" cx="278.593" cy="122.952" rx="7.12" ry="2.19"/>
		</g>
		<g>
			<path fill="#FFF6EE" d="M291.09,136.991c0,1.211-3.188,2.192-7.121,2.192c-3.932,0-7.12-0.981-7.12-2.192
				c0-0.269-0.289-1.792,0-2.031c1.009-0.833,4.063-0.159,7.12-0.159c3.089,0,6.135-0.686,7.121,0.159
				C291.36,135.192,291.09,136.731,291.09,136.991z"/>
			<path fill="#DDB08C" d="M276.84,132.227c0-1.211,3.188-2.192,7.122-2.192c3.932,0,7.119,0.981,7.119,2.192
				c0,0.269,0.289,1.793,0,2.032c-1.007,0.833-4.062,0.159-7.119,0.159c-3.089,0-6.135,0.686-7.122-0.159
				C276.57,134.026,276.84,132.486,276.84,132.227z"/>
			<ellipse fill="#EDD6BC" cx="283.969" cy="134.96" rx="7.121" ry="2.192"/>
		</g>
		<g>
			<path fill="#FFF6EE" d="M193.264,134.63c0,1.211-3.188,2.19-7.119,2.19c-3.934,0-7.122-0.979-7.122-2.19
				c0-0.271-0.288-1.794,0-2.032c1.009-0.833,4.063-0.16,7.122-0.16c3.087,0,6.133-0.687,7.119,0.16
				C193.534,132.829,193.264,134.37,193.264,134.63z"/>
			<path fill="#DDB08C" d="M179.016,129.863c0-1.211,3.188-2.19,7.12-2.19c3.934,0,7.121,0.979,7.121,2.19
				c0,0.271,0.288,1.794,0,2.031c-1.009,0.833-4.063,0.161-7.121,0.161c-3.087,0-6.133,0.686-7.12-0.161
				C178.746,131.664,179.016,130.123,179.016,129.863z"/>
			<ellipse fill="#EDD6BC" cx="186.143" cy="132.598" rx="7.12" ry="2.191"/>
		</g>
		<g>
			<path fill="#FFF6EE" d="M218.798,129.226c0,0.754-1.983,1.364-4.431,1.364s-4.432-0.61-4.432-1.364c0-0.168-0.178-1.115,0-1.264
				c0.628-0.519,2.529-0.1,4.432-0.1c1.922,0,3.816-0.428,4.431,0.1C218.966,128.105,218.798,129.064,218.798,129.226z"/>
			<path fill="#DDB08C" d="M209.932,126.26c0-0.753,1.984-1.363,4.43-1.363c2.447,0,4.432,0.61,4.432,1.363
				c0,0.168,0.18,1.117,0,1.266c-0.628,0.519-2.527,0.1-4.432,0.1c-1.92,0-3.815,0.426-4.43-0.1
				C209.763,127.38,209.932,126.422,209.932,126.26z"/>
			<ellipse fill="#EDD6BC" cx="214.367" cy="127.962" rx="4.431" ry="1.364"/>
		</g>
		<g>
			<path fill="#FFF6EE" d="M234.928,142.736c0,0.752-1.984,1.363-4.432,1.363s-4.432-0.611-4.432-1.363c0-0.168-0.179-1.117,0-1.264
				c0.628-0.521,2.528-0.102,4.432-0.102c1.921,0,3.817-0.426,4.432,0.102C235.095,141.616,234.928,142.574,234.928,142.736z"/>
			<path fill="#DDB08C" d="M226.06,139.771c0-0.754,1.984-1.364,4.432-1.364s4.431,0.61,4.431,1.364c0,0.168,0.18,1.115,0,1.264
				c-0.627,0.519-2.527,0.1-4.431,0.1c-1.923,0-3.817,0.428-4.432-0.1C225.893,140.891,226.06,139.932,226.06,139.771z"/>
			<ellipse fill="#EDD6BC" cx="230.496" cy="141.473" rx="4.432" ry="1.362"/>
		</g>
		<g>
			<path fill="#FFF6EE" d="M199.982,150.241c0,0.754-1.984,1.364-4.432,1.364s-4.432-0.61-4.432-1.364c0-0.168-0.18-1.115,0-1.265
				c0.628-0.518,2.528-0.099,4.432-0.099c1.921,0,3.817-0.428,4.432,0.099C200.149,149.12,199.982,150.08,199.982,150.241z"/>
			<path fill="#DDB08C" d="M191.114,147.275c0-0.753,1.984-1.363,4.432-1.363s4.431,0.61,4.431,1.363c0,0.167,0.18,1.116,0,1.264
				c-0.627,0.52-2.527,0.101-4.431,0.101c-1.923,0-3.817,0.426-4.432-0.101C190.946,148.396,191.114,147.438,191.114,147.275z"/>
			<ellipse fill="#EDD6BC" cx="195.551" cy="148.977" rx="4.432" ry="1.365"/>
		</g>
		<g>
			<path fill="#FFF6EE" d="M307.216,137.594c0,0.752-1.983,1.363-4.431,1.363c-2.448,0-4.432-0.611-4.432-1.363
				c0-0.168-0.18-1.117,0-1.266c0.628-0.519,2.527-0.1,4.432-0.1c1.92,0,3.816-0.426,4.431,0.1
				C307.384,136.474,307.216,137.431,307.216,137.594z"/>
			<path fill="#DDB08C" d="M298.349,134.628c0-0.754,1.983-1.364,4.431-1.364s4.432,0.61,4.432,1.364c0,0.168,0.18,1.115,0,1.264
				c-0.628,0.519-2.528,0.1-4.432,0.1c-1.92,0-3.817,0.428-4.431-0.1C298.181,135.748,298.349,134.789,298.349,134.628z"/>
			<ellipse fill="#EDD6BC" cx="302.785" cy="136.328" rx="4.431" ry="1.364"/>
		</g>
		<g>
			<path fill="#FFF6EE" d="M160.427,147.462c0,0.752-1.984,1.363-4.431,1.363s-4.431-0.611-4.431-1.363c0-0.168-0.18-1.117,0-1.266
				c0.627-0.519,2.528-0.1,4.431-0.1c1.921,0,3.815-0.426,4.431,0.1C160.595,146.342,160.427,147.299,160.427,147.462z"/>
			<path fill="#DDB08C" d="M151.56,144.496c0-0.754,1.984-1.365,4.432-1.365c2.445,0,4.431,0.611,4.431,1.365
				c0,0.168,0.18,1.115,0,1.264c-0.628,0.519-2.529,0.1-4.431,0.1c-1.922,0-3.817,0.428-4.432-0.1
				C151.391,145.616,151.56,144.657,151.56,144.496z"/>
			<ellipse fill="#EDD6BC" cx="155.996" cy="146.196" rx="4.431" ry="1.364"/>
		</g>
		<g>
			<path fill="#FFF6EE" d="M220.115,153.836c0,0.292-0.77,0.528-1.718,0.528c-0.947,0-1.717-0.236-1.717-0.528
				c0-0.065-0.07-0.432,0-0.489c0.243-0.2,0.98-0.039,1.717-0.039c0.744,0,1.479-0.164,1.718,0.039
				C220.18,153.403,220.115,153.774,220.115,153.836z"/>
			<path fill="#DDB08C" d="M216.679,152.687c0-0.291,0.769-0.528,1.718-0.528c0.947,0,1.717,0.237,1.717,0.528
				c0,0.064,0.07,0.433,0,0.491c-0.244,0.199-0.98,0.037-1.717,0.037c-0.744,0-1.479,0.166-1.718-0.037
				C216.614,153.121,216.679,152.75,216.679,152.687z"/>
			<ellipse fill="#EDD6BC" cx="218.398" cy="153.347" rx="1.717" ry="0.528"/>
		</g>
		<g>
			<path fill="#FFF6EE" d="M247.306,150.148c0,0.292-0.77,0.528-1.717,0.528c-0.949,0-1.717-0.236-1.717-0.528
				c0-0.065-0.07-0.431,0-0.489c0.243-0.2,0.979-0.039,1.717-0.039c0.744,0,1.479-0.164,1.717,0.039
				C247.371,149.716,247.306,150.087,247.306,150.148z"/>
			<path fill="#DDB08C" d="M243.87,148.999c0-0.291,0.768-0.528,1.717-0.528c0.948,0,1.718,0.237,1.718,0.528
				c0,0.065,0.068,0.433,0,0.491c-0.245,0.2-0.98,0.039-1.718,0.039c-0.745,0-1.479,0.164-1.717-0.039
				C243.806,149.434,243.87,149.062,243.87,148.999z"/>
			<ellipse fill="#EDD6BC" cx="245.589" cy="149.659" rx="1.717" ry="0.528"/>
		</g>
		<g>
			<path fill="#FFF6EE" d="M275.53,138.141c0,0.291-0.768,0.528-1.717,0.528c-0.948,0-1.718-0.237-1.718-0.528
				c0-0.064-0.068-0.433,0-0.49c0.243-0.2,0.98-0.038,1.718-0.038c0.745,0,1.479-0.166,1.717,0.038
				C275.596,137.706,275.53,138.077,275.53,138.141z"/>
			<path fill="#DDB08C" d="M272.095,136.991c0-0.292,0.77-0.528,1.717-0.528c0.949,0,1.717,0.236,1.717,0.528
				c0,0.065,0.07,0.433,0,0.489c-0.242,0.202-0.979,0.039-1.717,0.039c-0.744,0-1.479,0.166-1.717-0.039
				C272.029,137.426,272.095,137.053,272.095,136.991z"/>
			<ellipse fill="#EDD6BC" cx="273.813" cy="137.65" rx="1.717" ry="0.528"/>
		</g>
		<g>
			<path fill="#FFF6EE" d="M333.968,92.376c0,1.211-3.188,2.192-7.122,2.192c-3.932,0-7.119-0.981-7.119-2.192
				c0-0.269-0.289-1.794,0-2.032c1.009-0.833,4.063-0.161,7.119-0.161c3.089,0,6.135-0.684,7.122,0.161
				C334.237,90.576,333.968,92.116,333.968,92.376z"/>
			<path fill="#DDB08C" d="M319.718,87.612c0-1.211,3.188-2.193,7.121-2.193c3.933,0,7.12,0.982,7.12,2.193
				c0,0.269,0.289,1.792,0,2.03c-1.009,0.835-4.062,0.161-7.12,0.161c-3.088,0-6.134,0.686-7.121-0.161
				C319.447,89.411,319.718,87.872,319.718,87.612z"/>
			<ellipse fill="#EDD6BC" cx="326.847" cy="90.345" rx="7.121" ry="2.192"/>
		</g>
		<g>
			<path fill="#FFF6EE" d="M322.72,50.972c0,1.21-3.188,2.192-7.12,2.192c-3.934,0-7.121-0.982-7.121-2.192
				c0-0.269-0.289-1.792,0-2.032c1.009-0.833,4.063-0.159,7.121-0.159c3.087,0,6.133-0.686,7.12,0.159
				C322.989,49.172,322.72,50.711,322.72,50.972z"/>
			<path fill="#DDB08C" d="M308.47,46.207c0-1.211,3.188-2.192,7.121-2.192c3.932,0,7.12,0.981,7.12,2.192
				c0,0.269,0.289,1.792,0,2.032c-1.008,0.833-4.062,0.159-7.12,0.159c-3.089,0-6.133,0.686-7.121-0.159
				C308.199,48.006,308.47,46.467,308.47,46.207z"/>
			<ellipse fill="#EDD6BC" cx="315.599" cy="48.939" rx="7.121" ry="2.193"/>
		</g>
		<g>
			<path fill="#FFF6EE" d="M57.955,66.682c0,1.211-3.188,2.191-7.12,2.191c-3.934,0-7.122-0.98-7.122-2.191
				c0-0.27-0.289-1.794,0-2.032c1.009-0.833,4.064-0.161,7.122-0.161c3.087,0,6.133-0.686,7.12,0.161
				C58.225,64.881,57.955,66.422,57.955,66.682z"/>
			<path fill="#DDB08C" d="M43.705,61.915c0-1.21,3.188-2.19,7.122-2.19c3.932,0,7.12,0.98,7.12,2.19c0,0.271,0.289,1.794,0,2.032
				c-1.009,0.833-4.062,0.161-7.12,0.161c-3.089,0-6.135,0.686-7.122-0.161C43.437,63.716,43.705,62.175,43.705,61.915z"/>
			<ellipse fill="#EDD6BC" cx="50.834" cy="64.65" rx="7.121" ry="2.191"/>
		</g>
		<g>
			<path fill="#FFF6EE" d="M311.404,113.132c0,0.753-1.982,1.363-4.43,1.363s-4.431-0.61-4.431-1.363c0-0.167-0.18-1.117,0-1.264
				c0.627-0.52,2.527-0.101,4.431-0.101c1.921,0,3.815-0.426,4.43,0.101C311.573,112.012,311.404,112.969,311.404,113.132z"/>
			<path fill="#DDB08C" d="M302.538,110.167c0-0.754,1.984-1.365,4.432-1.365s4.431,0.61,4.431,1.365c0,0.167,0.179,1.115,0,1.264
				c-0.629,0.518-2.529,0.099-4.431,0.099c-1.923,0-3.817,0.428-4.432-0.099C302.371,111.287,302.538,110.327,302.538,110.167z"/>
			<ellipse fill="#EDD6BC" cx="306.974" cy="111.868" rx="4.43" ry="1.363"/>
		</g>
		<g>
			<path fill="#FFF6EE" d="M74.081,67.282c0,0.754-1.984,1.365-4.431,1.365s-4.431-0.611-4.431-1.365c0-0.168-0.18-1.115,0-1.264
				c0.627-0.518,2.528-0.099,4.431-0.099c1.92,0,3.817-0.428,4.431,0.099C74.248,66.162,74.081,67.121,74.081,67.282z"/>
			<path fill="#DDB08C" d="M65.213,64.316c0-0.752,1.984-1.363,4.431-1.363c2.448,0,4.432,0.61,4.432,1.363
				c0,0.167,0.179,1.117,0,1.264c-0.628,0.519-2.53,0.101-4.432,0.101c-1.922,0-3.817,0.426-4.431-0.101
				C65.045,65.437,65.213,64.479,65.213,64.316z"/>
			<ellipse fill="#EDD6BC" cx="69.649" cy="66.018" rx="4.431" ry="1.363"/>
		</g>
		<g>
			<path fill="#FFF6EE" d="M323.783,120.544c0,0.293-0.768,0.528-1.716,0.528c-0.949,0-1.717-0.235-1.717-0.528
				c0-0.064-0.07-0.433,0-0.489c0.243-0.2,0.979-0.039,1.717-0.039c0.744,0,1.478-0.164,1.716,0.039
				C323.85,120.111,323.783,120.482,323.783,120.544z"/>
			<path fill="#DDB08C" d="M320.349,119.395c0-0.29,0.769-0.528,1.716-0.528c0.949,0,1.717,0.238,1.717,0.528
				c0,0.065,0.07,0.433,0,0.491c-0.243,0.2-0.979,0.037-1.717,0.037c-0.744,0-1.478,0.166-1.716-0.037
				C320.284,119.829,320.349,119.458,320.349,119.395z"/>
			<ellipse fill="#EDD6BC" cx="322.067" cy="120.055" rx="1.716" ry="0.528"/>
		</g>
		<g>
			<path fill="#FFF6EE" d="M42.395,67.829c0,0.292-0.768,0.529-1.717,0.529c-0.947,0-1.717-0.236-1.717-0.529
				c0-0.065-0.07-0.433,0-0.489c0.245-0.202,0.98-0.04,1.717-0.04c0.746,0,1.479-0.164,1.717,0.04
				C42.46,67.395,42.395,67.768,42.395,67.829z"/>
			<path fill="#DDB08C" d="M38.959,66.68c0-0.291,0.77-0.529,1.717-0.529c0.947,0,1.717,0.238,1.717,0.529
				c0,0.065,0.07,0.433,0,0.491c-0.243,0.2-0.98,0.038-1.717,0.038c-0.744,0-1.479,0.166-1.717-0.038
				C38.894,67.114,38.959,66.743,38.959,66.68z"/>
			<ellipse fill="#EDD6BC" cx="40.678" cy="67.34" rx="1.717" ry="0.528"/>
		</g>
		<g>
			<path fill="#FFF6EE" d="M120.736,28.35c0,0.922-2.427,1.669-5.422,1.669c-2.993,0-5.421-0.747-5.421-1.669
				c0-0.206-0.219-1.365,0-1.548c0.77-0.633,3.094-0.122,5.421-0.122c2.352,0,4.671-0.521,5.422,0.122
				C120.943,26.979,120.736,28.151,120.736,28.35z"/>
			<path fill="#DDB08C" d="M109.888,24.721c0-0.922,2.427-1.669,5.421-1.669s5.421,0.747,5.421,1.669c0,0.206,0.219,1.367,0,1.548
				c-0.768,0.635-3.094,0.122-5.421,0.122c-2.352,0-4.671,0.521-5.421-0.122C109.681,26.092,109.888,24.919,109.888,24.721z"/>
			<ellipse fill="#EDD6BC" cx="115.315" cy="26.802" rx="5.422" ry="1.669"/>
		</g>
		<g>
			<path fill="#FFF6EE" d="M152.006,49.933c0,1.211-3.188,2.193-7.122,2.193c-3.932,0-7.12-0.982-7.12-2.193
				c0-0.268-0.289-1.792,0-2.032c1.009-0.833,4.062-0.159,7.12-0.159c3.089,0,6.135-0.686,7.122,0.159
				C152.276,48.134,152.006,49.673,152.006,49.933z"/>
			<path fill="#DDB08C" d="M137.756,45.168c0-1.211,3.188-2.192,7.122-2.192c3.932,0,7.12,0.981,7.12,2.192
				c0,0.269,0.289,1.792,0,2.032c-1.009,0.833-4.062,0.159-7.12,0.159c-3.089,0-6.135,0.686-7.122-0.159
				C137.486,46.968,137.756,45.429,137.756,45.168z"/>
			<ellipse fill="#EDD6BC" cx="144.886" cy="47.901" rx="7.121" ry="2.193"/>
		</g>
		<g>
			<path fill="#FFF6EE" d="M123.78,42.429c0,1.211-3.188,2.191-7.12,2.191c-3.932,0-7.12-0.98-7.12-2.191
				c0-0.27-0.289-1.794,0-2.032c1.007-0.833,4.062-0.161,7.12-0.161c3.087,0,6.133-0.686,7.12,0.161
				C124.051,40.628,123.78,42.169,123.78,42.429z"/>
			<path fill="#DDB08C" d="M109.532,37.662c0-1.211,3.188-2.19,7.12-2.19c3.934,0,7.122,0.979,7.122,2.19
				c0,0.271,0.287,1.794,0,2.032c-1.009,0.833-4.063,0.161-7.122,0.161c-3.087,0-6.133,0.686-7.12-0.161
				C109.262,39.463,109.532,37.922,109.532,37.662z"/>
			<ellipse fill="#EDD6BC" cx="116.661" cy="40.397" rx="7.12" ry="2.192"/>
		</g>
		<g>
			<path fill="#FFF6EE" d="M220.549,29.52c0,0.752-1.983,1.363-4.431,1.363s-4.432-0.61-4.432-1.363c0-0.168-0.18-1.117,0-1.264
				c0.628-0.52,2.528-0.101,4.432-0.101c1.921,0,3.817-0.426,4.431,0.101C220.717,28.399,220.549,29.357,220.549,29.52z"/>
			<path fill="#DDB08C" d="M211.682,26.554c0-0.754,1.984-1.365,4.432-1.365s4.431,0.61,4.431,1.365c0,0.167,0.18,1.115,0,1.264
				c-0.627,0.518-2.529,0.099-4.431,0.099c-1.923,0-3.817,0.427-4.432-0.099C211.514,27.674,211.682,26.715,211.682,26.554z"/>
			<ellipse fill="#EDD6BC" cx="216.118" cy="28.256" rx="4.431" ry="1.363"/>
		</g>
		<g>
			<path fill="#FFF6EE" d="M200.389,28.018c0,0.754-1.983,1.365-4.431,1.365s-4.432-0.61-4.432-1.365c0-0.167-0.18-1.115,0-1.264
				c0.628-0.518,2.528-0.099,4.432-0.099c1.92,0,3.815-0.428,4.431,0.099C200.557,26.898,200.389,27.856,200.389,28.018z"/>
			<path fill="#DDB08C" d="M191.521,25.053c0-0.752,1.983-1.363,4.431-1.363c2.448,0,4.432,0.611,4.432,1.363
				c0,0.167,0.18,1.117,0,1.264c-0.628,0.519-2.529,0.101-4.432,0.101c-1.922,0-3.816,0.426-4.431-0.101
				C191.354,26.173,191.521,25.215,191.521,25.053z"/>
			<ellipse fill="#EDD6BC" cx="195.958" cy="26.754" rx="4.431" ry="1.363"/>
		</g>
		<g>
			<path fill="#FFF6EE" d="M165.443,35.524c0,0.752-1.984,1.363-4.431,1.363s-4.431-0.611-4.431-1.363c0-0.167-0.18-1.117,0-1.264
				c0.628-0.52,2.528-0.101,4.431-0.101c1.921,0,3.817-0.426,4.431,0.101C165.611,34.404,165.443,35.362,165.443,35.524z"/>
			<path fill="#DDB08C" d="M156.576,32.559c0-0.754,1.984-1.365,4.431-1.365s4.431,0.61,4.431,1.365c0,0.167,0.18,1.115,0,1.264
				c-0.628,0.518-2.528,0.099-4.431,0.099c-1.922,0-3.817,0.428-4.431-0.099C156.408,33.679,156.576,32.72,156.576,32.559z"/>
			<ellipse fill="#EDD6BC" cx="161.012" cy="34.261" rx="4.431" ry="1.363"/>
		</g>
		<g>
			<path fill="#FFF6EE" d="M94.208,61.043c0,0.752-1.984,1.363-4.431,1.363c-2.446,0-4.43-0.611-4.43-1.363
				c0-0.167-0.18-1.117,0-1.266c0.626-0.518,2.528-0.099,4.43-0.099c1.922,0,3.817-0.426,4.431,0.099
				C94.378,59.923,94.208,60.88,94.208,61.043z"/>
			<path fill="#DDB08C" d="M85.343,58.078c0-0.754,1.982-1.365,4.431-1.365c2.446,0,4.429,0.61,4.429,1.365
				c0,0.167,0.18,1.115,0,1.264c-0.627,0.518-2.527,0.099-4.429,0.099c-1.922,0-3.817,0.428-4.431-0.099
				C85.173,59.198,85.343,58.238,85.343,58.078z"/>
			<ellipse fill="#EDD6BC" cx="89.778" cy="59.777" rx="4.43" ry="1.365"/>
		</g>
		<g>
			<path fill="#FFF6EE" d="M122.407,52.629c0,0.292-0.77,0.528-1.717,0.528c-0.949,0-1.717-0.236-1.717-0.528
				c0-0.065-0.07-0.433,0-0.489c0.243-0.202,0.98-0.04,1.717-0.04c0.744,0,1.479-0.166,1.717,0.04
				C122.472,52.194,122.407,52.565,122.407,52.629z"/>
			<path fill="#DDB08C" d="M118.971,51.479c0-0.291,0.768-0.529,1.717-0.529c0.948,0,1.717,0.238,1.717,0.529
				c0,0.065,0.068,0.433,0,0.491c-0.245,0.2-0.98,0.038-1.717,0.038c-0.746,0-1.479,0.166-1.717-0.038
				C118.906,51.914,118.971,51.542,118.971,51.479z"/>
			<ellipse fill="#EDD6BC" cx="120.69" cy="52.14" rx="1.717" ry="0.528"/>
		</g>
		<g>
			<path fill="#FFF6EE" d="M185.577,39.12c0,0.291-0.77,0.528-1.717,0.528c-0.949,0-1.717-0.238-1.717-0.528
				c0-0.065-0.07-0.433,0-0.491c0.243-0.2,0.98-0.038,1.717-0.038c0.744,0,1.479-0.166,1.717,0.038
				C185.642,38.685,185.577,39.056,185.577,39.12z"/>
			<path fill="#DDB08C" d="M182.141,37.97c0-0.292,0.768-0.529,1.717-0.529c0.947,0,1.717,0.236,1.717,0.529
				c0,0.065,0.068,0.433,0,0.489c-0.243,0.202-0.98,0.039-1.717,0.039c-0.746,0-1.479,0.164-1.717-0.039
				C182.076,38.404,182.141,38.032,182.141,37.97z"/>
			<ellipse fill="#EDD6BC" cx="183.86" cy="38.628" rx="1.717" ry="0.529"/>
		</g>
		<g>
			<path fill="#FFF6EE" d="M116.868,136.783c0,1.211-3.188,2.192-7.12,2.192c-3.933,0-7.121-0.981-7.121-2.192
				c0-0.269-0.289-1.793,0-2.032c1.009-0.833,4.063-0.159,7.121-0.159c3.087,0,6.133-0.686,7.12,0.159
				C117.138,134.983,116.868,136.522,116.868,136.783z"/>
			<path fill="#DDB08C" d="M102.618,132.019c0-1.211,3.188-2.193,7.122-2.193c3.932,0,7.12,0.982,7.12,2.193
				c0,0.269,0.289,1.792,0,2.031c-1.007,0.833-4.062,0.159-7.12,0.159c-3.089,0-6.133,0.686-7.122-0.159
				C102.348,133.817,102.618,132.278,102.618,132.019z"/>
			<ellipse fill="#EDD6BC" cx="109.747" cy="134.751" rx="7.121" ry="2.192"/>
		</g>
		<g>
			<path fill="#FFF6EE" d="M162.362,115.114c0,1.211-3.188,2.192-7.12,2.192c-3.934,0-7.122-0.981-7.122-2.192
				c0-0.269-0.288-1.793,0-2.03c1.009-0.834,4.063-0.161,7.122-0.161c3.087,0,6.133-0.686,7.12,0.161
				C162.632,113.314,162.362,114.854,162.362,115.114z"/>
			<path fill="#DDB08C" d="M148.112,110.349c0-1.21,3.188-2.192,7.122-2.192c3.932,0,7.12,0.982,7.12,2.192
				c0,0.271,0.289,1.794,0,2.032c-1.009,0.833-4.062,0.161-7.12,0.161c-3.087,0-6.135,0.686-7.122-0.161
				C147.843,112.15,148.112,110.609,148.112,110.349z"/>
			<ellipse fill="#EDD6BC" cx="155.241" cy="113.084" rx="7.121" ry="2.19"/>
		</g>
		<g>
			<path fill="#FFF6EE" d="M265.187,42.011c0,1.209-3.188,2.191-7.121,2.191c-3.932,0-7.12-0.981-7.12-2.191
				c0-0.27-0.289-1.794,0-2.032c1.008-0.833,4.062-0.161,7.12-0.161c3.089,0,6.133-0.686,7.121,0.161
				C265.457,40.21,265.187,41.751,265.187,42.011z"/>
			<path fill="#DDB08C" d="M250.937,37.245c0-1.211,3.188-2.191,7.12-2.191c3.934,0,7.121,0.98,7.121,2.191
				c0,0.27,0.289,1.794,0,2.032c-1.009,0.833-4.063,0.161-7.121,0.161c-3.087,0-6.133,0.686-7.12-0.161
				C250.667,39.046,250.937,37.505,250.937,37.245z"/>
			<ellipse fill="#EDD6BC" cx="258.066" cy="39.979" rx="7.121" ry="2.191"/>
		</g>
		<g>
			<path fill="#FFF6EE" d="M138.99,64.318c0,1.21-3.188,2.192-7.12,2.192c-3.934,0-7.121-0.982-7.121-2.192
				c0-0.269-0.288-1.792,0-2.032c1.009-0.833,4.063-0.159,7.121-0.159c3.087,0,6.133-0.686,7.12,0.159
				C139.26,62.519,138.99,64.058,138.99,64.318z"/>
			<path fill="#DDB08C" d="M124.74,59.553c0-1.21,3.188-2.192,7.122-2.192c3.932,0,7.12,0.982,7.12,2.192
				c0,0.269,0.289,1.792,0,2.032c-1.009,0.833-4.062,0.159-7.12,0.159c-3.087,0-6.135,0.686-7.122-0.159
				C124.47,61.353,124.74,59.813,124.74,59.553z"/>
			<ellipse fill="#EDD6BC" cx="131.869" cy="62.287" rx="7.121" ry="2.192"/>
		</g>
		<g>
			<path fill="#FFF6EE" d="M94.583,44.582c0,1.211-3.188,2.192-7.122,2.192c-3.932,0-7.12-0.981-7.12-2.192
				c0-0.269-0.289-1.792,0-2.032c1.009-0.833,4.062-0.159,7.12-0.159c3.089,0,6.135-0.686,7.122,0.159
				C94.854,42.783,94.583,44.322,94.583,44.582z"/>
			<path fill="#DDB08C" d="M80.333,39.817c0-1.211,3.188-2.193,7.121-2.193c3.932,0,7.12,0.982,7.12,2.193
				c0,0.269,0.289,1.792,0,2.032c-1.007,0.833-4.062,0.159-7.12,0.159c-3.088,0-6.134,0.686-7.121-0.159
				C80.063,41.616,80.333,40.077,80.333,39.817z"/>
			<ellipse fill="#EDD6BC" cx="87.462" cy="42.55" rx="7.121" ry="2.192"/>
		</g>
		<g>
			<path fill="#FFF6EE" d="M164.523,58.916c0,0.752-1.984,1.363-4.431,1.363s-4.431-0.61-4.431-1.363c0-0.167-0.18-1.117,0-1.264
				c0.627-0.519,2.529-0.101,4.431-0.101c1.922,0,3.817-0.426,4.431,0.101C164.691,57.795,164.523,58.753,164.523,58.916z"/>
			<path fill="#DDB08C" d="M155.656,55.95c0-0.754,1.984-1.365,4.431-1.365c2.448,0,4.432,0.611,4.432,1.365
				c0,0.167,0.179,1.115,0,1.264c-0.628,0.518-2.528,0.099-4.432,0.099c-1.92,0-3.817,0.428-4.431-0.099
				C155.488,57.07,155.656,56.112,155.656,55.95z"/>
			<ellipse fill="#EDD6BC" cx="160.092" cy="57.652" rx="4.431" ry="1.363"/>
		</g>
		<g>
			<path fill="#FFF6EE" d="M180.653,72.425c0,0.754-1.984,1.365-4.431,1.365s-4.432-0.611-4.432-1.365c0-0.167-0.179-1.115,0-1.264
				c0.628-0.518,2.528-0.099,4.432-0.099c1.92,0,3.815-0.427,4.431,0.099C180.82,71.305,180.653,72.264,180.653,72.425z"/>
			<path fill="#DDB08C" d="M171.785,69.459c0-0.752,1.984-1.363,4.431-1.363s4.43,0.61,4.43,1.363c0,0.168,0.181,1.117,0,1.264
				c-0.626,0.52-2.528,0.101-4.43,0.101c-1.922,0-3.817,0.426-4.431-0.101C171.616,70.58,171.785,69.622,171.785,69.459z"/>
			<ellipse fill="#EDD6BC" cx="176.221" cy="71.161" rx="4.431" ry="1.365"/>
		</g>
		<g>
			<path fill="#FFF6EE" d="M145.708,79.931c0,0.752-1.984,1.363-4.431,1.363c-2.448,0-4.432-0.61-4.432-1.363
				c0-0.168-0.179-1.117,0-1.264c0.628-0.518,2.528-0.101,4.432-0.101c1.92,0,3.817-0.426,4.431,0.101
				C145.875,78.811,145.708,79.769,145.708,79.931z"/>
			<path fill="#DDB08C" d="M136.84,76.965c0-0.754,1.984-1.365,4.431-1.365s4.431,0.611,4.431,1.365c0,0.167,0.18,1.115,0,1.264
				c-0.627,0.518-2.528,0.099-4.431,0.099c-1.922,0-3.817,0.427-4.431-0.099C136.672,78.085,136.84,77.126,136.84,76.965z"/>
			<ellipse fill="#EDD6BC" cx="141.276" cy="78.667" rx="4.431" ry="1.363"/>
		</g>
		<g>
			<path fill="#FFF6EE" d="M165.84,83.526c0,0.292-0.77,0.528-1.717,0.528c-0.949,0-1.717-0.236-1.717-0.528
				c0-0.065-0.07-0.433,0-0.489c0.243-0.202,0.98-0.039,1.717-0.039c0.744,0,1.479-0.166,1.717,0.039
				C165.905,83.091,165.84,83.462,165.84,83.526z"/>
			<path fill="#DDB08C" d="M162.404,82.376c0-0.292,0.768-0.528,1.717-0.528c0.947,0,1.717,0.236,1.717,0.528
				c0,0.065,0.068,0.433,0,0.489c-0.245,0.202-0.98,0.04-1.717,0.04c-0.746,0-1.479,0.166-1.717-0.04
				C162.339,82.811,162.404,82.44,162.404,82.376z"/>
			<ellipse fill="#EDD6BC" cx="164.123" cy="83.037" rx="1.717" ry="0.529"/>
		</g>
		<g>
			<path fill="#FFF6EE" d="M193.031,79.838c0,0.292-0.77,0.529-1.717,0.529c-0.949,0-1.717-0.236-1.717-0.529
				c0-0.065-0.07-0.433,0-0.491c0.242-0.2,0.978-0.038,1.717-0.038c0.744,0,1.478-0.166,1.717,0.038
				C193.097,79.404,193.031,79.775,193.031,79.838z"/>
			<path fill="#DDB08C" d="M189.596,78.689c0-0.292,0.768-0.529,1.715-0.529c0.949,0,1.718,0.236,1.718,0.529
				c0,0.065,0.07,0.433,0,0.489c-0.243,0.202-0.979,0.04-1.718,0.04c-0.743,0-1.478,0.166-1.715-0.04
				C189.53,79.124,189.596,78.752,189.596,78.689z"/>
			<ellipse fill="#EDD6BC" cx="191.314" cy="79.348" rx="1.717" ry="0.529"/>
		</g>
		<g>
			<path fill="#FFF6EE" d="M221.256,67.829c0,0.292-0.769,0.529-1.717,0.529c-0.949,0-1.718-0.236-1.718-0.529
				c0-0.065-0.07-0.433,0-0.489c0.243-0.202,0.98-0.04,1.718-0.04c0.743,0,1.479-0.164,1.717,0.04
				C221.32,67.395,221.256,67.768,221.256,67.829z"/>
			<path fill="#DDB08C" d="M217.819,66.68c0-0.291,0.769-0.529,1.718-0.529c0.947,0,1.717,0.238,1.717,0.529
				c0,0.065,0.07,0.433,0,0.491c-0.243,0.2-0.979,0.038-1.717,0.038c-0.744,0-1.479,0.166-1.718-0.038
				C217.755,67.114,217.819,66.743,217.819,66.68z"/>
			<ellipse fill="#EDD6BC" cx="219.539" cy="67.34" rx="1.717" ry="0.528"/>
		</g>
	</g>
	<path fill="#EDC294" d="M186.693,12.292c44.882,0,86.853,8.062,118.182,22.7c29.31,13.696,46.12,32.053,46.12,50.363
		c0,18.482-16.365,36.144-46.081,49.729c-31.176,14.253-73.161,22.102-118.221,22.102s-87.046-7.849-118.222-22.102
		C38.755,121.5,22.39,103.838,22.39,85.356c0-18.31,16.81-36.667,46.122-50.363C99.839,20.354,141.81,12.292,186.693,12.292
		 M186.693,7.039c-95.007,0-169.557,35.746-169.557,78.317c0,42.573,74.55,77.084,169.557,77.084
		c95.006,0,169.556-34.512,169.556-77.084C356.249,42.785,281.699,7.039,186.693,7.039L186.693,7.039z"/>
	<path opacity="0.1" fill="#D38835" d="M213,203.484c-54.12,8.523-125.802-9.538-153.109-18.828
		c27.586,22.396,67.673,32.926,126.833,32.926c59.017,0,152.648-6.472,168.717-111.648C315.6,169.685,301.704,189.515,213,203.484z"
		/>
	<path opacity="0.4" fill="#D38835" d="M75.55,195.326c26.536,15.086,62.362,22.256,111.174,22.256
		c50.341,0,87.708-7.447,114.639-23.442c-20.757,5.447-37.7,19.577-108.474,20.251C122.115,215.065,103.522,202.165,75.55,195.326z"
		/>
	<g>
		<g>
			<path fill="#EAB753" d="M76.325,176.532c1.935,0,1.935-3,0-3S74.39,176.532,76.325,176.532L76.325,176.532z"/>
		</g>
	</g>
	<g>
		<g>
			<path fill="#EAB753" d="M126.9,196.269c1.935,0,1.935-3,0-3S124.965,196.269,126.9,196.269L126.9,196.269z"/>
		</g>
	</g>
	<g>
		<g>
			<path fill="#EAB753" d="M219.414,177.766c1.935,0,1.935-3,0-3S217.479,177.766,219.414,177.766L219.414,177.766z"/>
		</g>
	</g>
	<g>
		<g>
			<path fill="#EAB753" d="M242.85,193.801c1.935,0,1.935-3,0-3S240.915,193.801,242.85,193.801L242.85,193.801z"/>
		</g>
	</g>
	<g>
		<g>
			<path fill="#EAB753" d="M310.692,166.664c1.935,0,1.935-3,0-3S308.758,166.664,310.692,166.664L310.692,166.664z"/>
		</g>
	</g>
	<g>
		<g>
			<path fill="#EAB753" d="M327.963,150.629c1.935,0,1.935-3,0-3S326.028,150.629,327.963,150.629L327.963,150.629z"/>
		</g>
	</g>
	<g>
		<g>
			<path fill="#EAB753" d="M240.383,185.168c1.935,0,1.935-3,0-3S238.448,185.168,240.383,185.168L240.383,185.168z"/>
		</g>
	</g>
	<g>
		<g>
			<path fill="#EAB753" d="M183.641,180.233c1.935,0,1.935-3,0-3S181.706,180.233,183.641,180.233L183.641,180.233z"/>
		</g>
	</g>
	<g>
		<g>
			<path fill="#EAB753" d="M177.474,206.137c1.935,0,1.935-3,0-3S175.539,206.137,177.474,206.137L177.474,206.137z"/>
		</g>
	</g>
	<g>
		<g>
			<path fill="#EAB753" d="M49.187,150.629c1.935,0,1.935-3,0-3S47.252,150.629,49.187,150.629L49.187,150.629z"/>
		</g>
	</g>
	<g>
		<g>
			<path fill="#EAB753" d="M98.528,167.897c1.935,0,1.935-3,0-3S96.594,167.897,98.528,167.897L98.528,167.897z"/>
		</g>
	</g>
	<g>
		<g>
			<g>
				<path fill="#934607" d="M60.289,145.695c1.935,0,1.935-3,0-3S58.354,145.695,60.289,145.695L60.289,145.695z"/>
			</g>
		</g>
		<g>
			<g>
				<path fill="#934607" d="M82.492,185.168c1.935,0,1.935-3,0-3S80.557,185.168,82.492,185.168L82.492,185.168z"/>
			</g>
		</g>
		<g>
			<g>
				<path fill="#934607" d="M131.832,190.102c1.935,0,1.935-3,0-3S129.897,190.102,131.832,190.102L131.832,190.102z"/>
			</g>
		</g>
		<g>
			<g>
				<path fill="#934607" d="M167.605,204.903c1.935,0,1.935-3,0-3S165.671,204.903,167.605,204.903L167.605,204.903z"/>
			</g>
		</g>
		<g>
			<g>
				<path fill="#934607" d="M323.029,171.599c1.935,0,1.935-3,0-3S321.095,171.599,323.029,171.599L323.029,171.599z"/>
			</g>
		</g>
		<g>
			<g>
				<path fill="#934607" d="M256.418,174.064c1.935,0,1.935-3,0-3S254.483,174.064,256.418,174.064L256.418,174.064z"/>
			</g>
		</g>
		<g>
			<g>
				<path fill="#934607" d="M131.832,195.035c1.935,0,1.935-3,0-3S129.897,195.035,131.832,195.035L131.832,195.035z"/>
			</g>
		</g>
		<g>
			<g>
				<path fill="#934607" d="M208.311,206.137c1.935,0,1.935-3,0-3S206.376,206.137,208.311,206.137L208.311,206.137z"/>
			</g>
		</g>
		<g>
			<g>
				<path fill="#934607" d="M265.054,197.502c1.935,0,1.935-3,0-3S263.119,197.502,265.054,197.502L265.054,197.502z"/>
			</g>
		</g>
		<g>
			<g>
				<path fill="#934607" d="M332.896,156.796c1.935,0,1.935-3,0-3S330.962,156.796,332.896,156.796L332.896,156.796z"/>
			</g>
		</g>
		<g>
			<g>
				<path fill="#934607" d="M191.043,187.634c1.935,0,1.935-3,0-3S189.108,187.634,191.043,187.634L191.043,187.634z"/>
			</g>
		</g>
		<g>
			<g>
				<path fill="#934607" d="M99.762,175.3c1.935,0,1.935-3,0-3S97.827,175.3,99.762,175.3L99.762,175.3z"/>
			</g>
		</g>
		<g>
			<g>
				<path fill="#934607" d="M119.498,209.838c1.935,0,1.935-3,0-3S117.563,209.838,119.498,209.838L119.498,209.838z"/>
			</g>
		</g>
	</g>
	<g opacity="0.95">
		<g>
			<g>
				<path opacity="0.3" fill="#934607" d="M202.855,199.48c2.013-0.296,6.716-0.845,7.008,1.912c0.295,2.759-3.649,3.899-6.93,3.167
					c-3.281-0.731-3.759-1.091-3.485-2.229C199.724,201.192,200.842,199.776,202.855,199.48z"/>
				<g>
					<path fill="#F1ECDB" d="M204.754,198.604c2.016-0.307,5.168-0.514,5.466,2.259c0.296,2.771-3.002,3.701-6.287,2.976
						c-3.287-0.725-3.97-1.147-3.694-2.299C200.512,200.389,202.737,198.911,204.754,198.604z"/>
					<path opacity="0.5" fill="#FFFFFF" d="M209.602,201.561c0.443-0.192-0.012-2.032-1.727-2.535
						c-1.716-0.503-2.27-0.063-2.244,0.173c0.027,0.236,1.264,0.029,2.445,0.653C209.26,200.476,209.159,201.752,209.602,201.561z"
						/>
					<path opacity="0.3" fill="#D8B9AB" d="M203.933,203.838c-3.287-0.725-3.97-1.147-3.694-2.299
						c0.163-0.681,1.016-1.46,2.097-2.062c-0.462,0.724-1.009,1.75-0.634,2.224c0.504,0.638,4.01,0.854,5.557,2.28
						C206.255,204.145,205.096,204.095,203.933,203.838z"/>
				</g>
			</g>
			<g>
				<path opacity="0.3" fill="#934607" d="M224.471,207.404c2.02-0.216,6.724-0.57,6.902,2.463c0.18,3.032-3.784,4.15-7.048,3.156
					c-3.261-0.991-3.721-1.428-3.396-2.678C221.256,209.096,222.451,207.618,224.471,207.404z"/>
				<g>
					<path fill="#F1ECDB" d="M226.415,206.571c2.027-0.219,5.165-0.294,5.34,2.738c0.176,3.032-3.146,3.935-6.41,2.951
						c-3.265-0.983-3.92-1.496-3.588-2.748C222.085,208.261,224.389,206.79,226.415,206.571z"/>
					<path opacity="0.5" fill="#FFFFFF" d="M229.868,209.034c0.364-0.325-0.774-1.98-2.648-1.938
						c-1.875,0.041-2.265,0.633-2.153,0.853c0.111,0.217,1.26-0.356,2.657-0.113S229.504,209.36,229.868,209.034z"/>
					<path opacity="0.3" fill="#D8B9AB" d="M225.345,212.261c-3.265-0.983-3.92-1.496-3.588-2.748
						c0.195-0.739,1.084-1.548,2.194-2.138c-0.501,0.752-1.386,2.825-0.701,3.137c1.828,0.831,2.69,1.279,5.423,2.079
						C227.66,212.725,226.499,212.608,225.345,212.261z"/>
				</g>
			</g>
			<g>
				<path opacity="0.3" fill="#934607" d="M169.399,198.514c2.008-0.138,6.686-0.355,7.149,2.135s-3.41,3.359-6.771,2.55
					c-3.359-0.809-3.872-1.195-3.662-2.238S167.39,198.652,169.399,198.514z"/>
				<g>
					<path fill="#F1ECDB" d="M171.265,197.814c2.01-0.157,5.143-0.146,5.608,2.367s-2.772,3.226-6.135,2.42
						c-3.36-0.804-4.077-1.268-3.863-2.327C167.087,199.214,169.256,197.972,171.265,197.814z"/>
					<path opacity="0.5" fill="#FFFFFF" d="M174.971,199.968c0.332-0.275-0.973-1.681-2.846-1.671
						c-1.873,0.011-2.205,0.513-2.071,0.706c0.135,0.193,1.223-0.28,2.647-0.06C174.125,199.166,174.64,200.241,174.971,199.968z"/>
					<path opacity="0.3" fill="#D8B9AB" d="M170.738,202.602c-3.359-0.806-4.077-1.268-3.863-2.327
						c0.125-0.628,0.944-1.307,2.001-1.802c-0.431,0.657-1.12,2.407-0.4,2.679c1.922,0.727,2.827,1.097,5.62,1.712
						C173.097,202.973,171.927,202.888,170.738,202.602z"/>
				</g>
			</g>
			<g>
				<path opacity="0.3" fill="#934607" d="M178.033,205.142c1.987-0.156,6.605-0.455,7.005,1.938
					c0.402,2.393-3.421,3.285-6.715,2.49c-3.295-0.796-3.798-1.153-3.576-2.137C174.971,206.449,176.045,205.297,178.033,205.142z"
					/>
				<g>
					<path fill="#F1ECDB" d="M179.885,204.478c1.989-0.167,5.09-0.242,5.488,2.155c0.4,2.397-2.798,3.126-6.092,2.341
						c-3.296-0.783-4-1.202-3.776-2.188C175.729,205.798,177.896,204.647,179.885,204.478z"/>
					<path opacity="0.5" fill="#FFFFFF" d="M183.497,206.431c0.333-0.26-0.917-1.56-2.769-1.528
						c-1.851,0.03-2.189,0.492-2.059,0.667c0.128,0.176,1.216-0.274,2.617-0.083C182.686,205.68,183.164,206.69,183.497,206.431z"/>
					<path opacity="0.3" fill="#D8B9AB" d="M179.281,208.974c-3.294-0.784-4-1.202-3.776-2.188c0.133-0.585,0.949-1.215,2.003-1.678
						c-0.435,0.599-1.139,2.229-0.435,2.481c1.885,0.67,2.769,1.021,5.507,1.646C181.597,209.342,180.448,209.251,179.281,208.974z"
						/>
				</g>
			</g>
			<g>
				<path opacity="0.3" fill="#934607" d="M207.839,212.812c1.967-0.16,6.745-0.69,7.043,2.239c0.297,2.928-3.039,4.498-6.276,3.439
					c-3.239-1.06-3.905-1.424-3.644-2.627C205.222,214.659,205.872,212.971,207.839,212.812z"/>
				<g>
					<path fill="#F1ECDB" d="M209.706,212.058c1.973-0.169,5.021-0.226,5.314,2.698c0.294,2.925-2.884,3.778-6.118,2.742
						c-3.235-1.037-3.904-1.55-3.634-2.743C205.538,213.562,207.734,212.227,209.706,212.058z"/>
					<path opacity="0.5" fill="#FFFFFF" d="M213.168,214.46c0.342-0.306-0.826-1.895-2.654-1.89
						c-1.828,0.004-2.189,0.548-2.071,0.758c0.116,0.211,1.215-0.312,2.588-0.053C212.403,213.533,212.826,214.769,213.168,214.46z"
						/>
					<path opacity="0.3" fill="#D8B9AB" d="M208.902,217.498c-3.235-1.035-3.904-1.55-3.634-2.743
						c0.159-0.705,0.995-1.449,2.059-1.984c-0.462,0.701-1.239,2.663-0.556,2.979c1.826,0.847,2.688,1.296,5.391,2.14
						C211.181,218.001,210.049,217.864,208.902,217.498z"/>
				</g>
			</g>
			<g>
				<path opacity="0.3" fill="#934607" d="M196.73,207.63c1.545-0.15,5.306-0.594,5.547,1.445c0.239,2.038-2.405,3.15-4.936,2.488
					c-2.533-0.662-3.063-0.899-2.856-1.739C194.69,208.982,195.188,207.778,196.73,207.63z"/>
				<g>
					<path fill="#F1ECDB" d="M198.189,207.061c1.548-0.156,3.952-0.231,4.19,1.806c0.239,2.037-2.267,2.67-4.801,2.019
						c-2.534-0.65-3.06-0.996-2.853-1.834C194.934,208.211,196.642,207.218,198.189,207.061z"/>
					<path opacity="0.5" fill="#FFFFFF" d="M200.931,208.691c0.268-0.221-0.667-1.316-2.102-1.279
						c-1.435,0.038-1.714,0.428-1.618,0.575c0.095,0.146,0.953-0.239,2.032-0.086C200.324,208.056,200.664,208.912,200.931,208.691z
						"/>
					<path opacity="0.3" fill="#D8B9AB" d="M197.579,210.885c-2.534-0.65-3.06-0.996-2.853-1.834
						c0.123-0.497,0.77-1.041,1.599-1.439c-0.354,0.506-0.954,1.899-0.417,2.106c1.437,0.555,2.119,0.842,4.228,1.368
						C199.368,211.181,198.477,211.115,197.579,210.885z"/>
				</g>
			</g>
			<g>
				<path opacity="0.3" fill="#934607" d="M197.054,197.866c-1.541-0.156-5.277-0.56-5.903,1.484
					c-0.624,2.045,1.847,3.179,4.539,2.603c2.691-0.576,3.271-0.822,3.226-1.719C198.868,199.34,198.597,198.021,197.054,197.866z"
					/>
				<g>
					<path fill="#F1ECDB" d="M195.672,197.261c-1.544-0.156-3.968-0.173-4.59,1.878c-0.624,2.05,1.796,2.716,4.491,2.126
						c2.693-0.589,3.299-0.956,3.251-1.861C198.774,198.5,197.218,197.416,195.672,197.261z"/>
					<path opacity="0.5" fill="#FFFFFF" d="M192.587,198.979c-0.231-0.231,0.92-1.366,2.372-1.334s1.66,0.453,1.537,0.61
						s-0.92-0.257-2.045-0.093C193.324,198.328,192.816,199.208,192.587,198.979z"/>
					<path opacity="0.3" fill="#D8B9AB" d="M195.573,201.265c2.689-0.591,3.299-0.956,3.251-1.861
						c-0.029-0.533-0.587-1.123-1.356-1.555c0.269,0.549,0.609,2.035,0.022,2.244c-1.566,0.558-2.306,0.85-4.544,1.305
						C193.707,201.512,194.618,201.473,195.573,201.265z"/>
				</g>
			</g>
			<g>
				<path opacity="0.3" fill="#934607" d="M126.462,200.426c-2.399-0.74-7.809-2.332-8.125,0.323
					c-0.316,2.656,4.005,4.703,7.826,4.676c3.822-0.027,4.489-0.294,4.242-1.467C130.156,202.786,128.861,201.167,126.462,200.426z"
					/>
				<g>
					<path fill="#F1ECDB" d="M124.22,199.142c-2.382-0.759-5.976-1.669-6.289,0.999s3.291,4.359,7.104,4.351
						c3.815-0.007,4.722-0.292,4.467-1.474C129.248,201.835,126.601,199.901,124.22,199.142z"/>
					<path opacity="0.5" fill="#FFFFFF" d="M120.057,200.418c-0.395-0.392,0.978-1.574,3.169-1.021s2.622,1.186,2.47,1.352
						c-0.152,0.164-1.467-0.66-3.106-0.824C120.95,199.759,120.454,200.811,120.057,200.418z"/>
					<path opacity="0.3" fill="#D8B9AB" d="M125.036,204.491c3.814-0.009,4.722-0.292,4.467-1.474
						c-0.152-0.7-1.139-1.646-2.413-2.476c0.525,0.81,1.361,2.865,0.523,2.959c-2.246,0.252-3.28,0.423-6.369,0.396
						C122.373,204.286,123.688,204.495,125.036,204.491z"/>
				</g>
			</g>
			<g>
				<path opacity="0.3" fill="#934607" d="M143.017,198.736c-1.914-0.913-7.008-3.271-8.614-1.007
					c-1.606,2.266,3.142,4.904,6.723,5.325c3.582,0.421,4.19,0.219,4.317-0.824C145.57,201.188,144.929,199.649,143.017,198.736z"/>
				<g>
					<path fill="#F1ECDB" d="M141.42,197.325c-1.911-0.975-5.641-2.516-7.253-0.219s2.632,4.568,6.215,5.023
						c3.584,0.455,4.414,0.256,4.544-0.804C145.054,200.266,143.33,198.301,141.42,197.325z"/>
					<path opacity="0.5" fill="#FFFFFF" d="M134.666,197.989c-0.498-0.362,0.915-1.732,3.482-1.42
						c1.861,0.228,2.302,0.78,2.194,0.979s-0.942-0.354-2.848-0.353C135.589,197.199,135.16,198.35,134.666,197.989z"/>
					<path opacity="0.3" fill="#D8B9AB" d="M140.382,202.13c3.584,0.455,4.416,0.255,4.544-0.804
						c0.075-0.626-0.506-1.552-1.382-2.422c0.212,0.778,0.398,1.83-0.147,2.117c-0.732,0.387-4.122-0.527-6.776,0.022
						C137.84,201.595,139.114,201.969,140.382,202.13z"/>
				</g>
			</g>
			<g>
				<path opacity="0.3" fill="#934607" d="M106.585,205.579c-2.052-0.523-6.716-1.693-6.506,1.354
					c0.21,3.048,4.351,5.136,7.486,4.601c3.133-0.535,3.551-0.973,3.029-2.358C110.073,207.79,108.638,206.101,106.585,205.579z"/>
				<g>
					<path fill="#F1ECDB" d="M104.537,204.448c-2.035-0.524-5.098-1.159-4.895,1.853s3.639,4.721,6.771,4.216
						c3.13-0.505,3.734-0.986,3.212-2.354C109.104,206.797,106.572,204.974,104.537,204.448z"/>
					<path opacity="0.5" fill="#FFFFFF" d="M100.364,207.15c-0.467-0.267-0.353-2.213,1.216-2.564
						c1.568-0.354,2.201,0.157,2.222,0.406c0.021,0.248-1.228-0.101-2.261,0.446C100.507,205.986,100.829,207.416,100.364,207.15z"
						/>
					<path opacity="0.3" fill="#D8B9AB" d="M106.413,210.517c3.128-0.503,3.734-0.986,3.212-2.354
						c-0.306-0.807-1.325-1.773-2.521-2.538c0.607,0.837,1.368,2.062,1.091,2.576c-0.371,0.688-3.814,0.528-5.059,2.076
						C104.164,210.605,105.305,210.694,106.413,210.517z"/>
				</g>
			</g>
			<g>
				<path opacity="0.3" fill="#934607" d="M112.062,204.402c1.538-0.021,5.352-0.148,6.436,2.157
					c1.084,2.305-1.268,3.495-4.154,2.55c-2.887-0.948-3.511-1.304-3.657-2.304C110.54,205.805,110.526,204.423,112.062,204.402z"/>
				<g>
					<path fill="#F1ECDB" d="M113.344,203.893c1.553-0.019,4.098,0.141,5.184,2.442c1.084,2.301-1.331,2.914-4.223,1.972
						s-3.561-1.43-3.705-2.416C110.458,204.902,111.792,203.912,113.344,203.893z"/>
					<path opacity="0.5" fill="#FFFFFF" d="M116.91,206.021c0.192-0.228-1.26-1.56-2.751-1.662c-1.492-0.102-1.604,0.33-1.444,0.51
						c0.161,0.179,0.881-0.188,2.083,0.094C115.999,205.244,116.719,206.248,116.91,206.021z"/>
					<path opacity="0.3" fill="#D8B9AB" d="M114.306,208.307c-2.892-0.942-3.561-1.43-3.705-2.416
						c-0.085-0.585,0.353-1.168,1.043-1.552c-0.154,0.558-0.188,2.157,0.451,2.447c1.714,0.778,2.53,1.184,4.957,1.926
						C116.284,208.773,115.33,208.641,114.306,208.307z"/>
				</g>
			</g>
			<g>
				<path opacity="0.3" fill="#934607" d="M160.148,203.499c-1.495-0.509-5.018-1.667-6.017-0.032
					c-0.997,1.635,1.758,3.093,4.536,3.207c2.776,0.114,3.253-0.055,3.359-0.824S161.642,204.009,160.148,203.499z"/>
				<g>
					<path fill="#F1ECDB" d="M158.895,202.645c-1.498-0.525-3.894-1.216-4.895,0.429c-0.999,1.646,1.312,2.854,4.091,2.977
						c2.781,0.123,3.431-0.059,3.535-0.831C161.73,204.445,160.392,203.169,158.895,202.645z"/>
					<path opacity="0.5" fill="#FFFFFF" d="M154.29,203.619c-0.294-0.2,0.569-1.238,2.047-1.247
						c1.476-0.008,1.799,0.351,1.717,0.493c-0.084,0.142-1.002-0.195-2.099-0.021C154.859,203.021,154.583,203.817,154.29,203.619z"
						/>
					<path opacity="0.3" fill="#D8B9AB" d="M158.091,206.05c2.779,0.121,3.431-0.059,3.535-0.831
						c0.062-0.457-0.387-1.088-1.069-1.639c0.166,0.528,0.304,1.269-0.122,1.507c-0.573,0.317-3.368-0.139-4.987,0.453
						C156.189,205.827,157.109,206.007,158.091,206.05z"/>
				</g>
			</g>
			<g>
				<path opacity="0.3" fill="#934607" d="M161.792,208.271c1.953-0.227,6.509-0.71,7.334,1.556
					c0.824,2.265-2.831,3.417-6.258,2.815c-3.426-0.603-3.987-0.953-3.937-1.958C158.98,209.679,159.839,208.497,161.792,208.271z"
					/>
				<g>
					<path fill="#F1ECDB" d="M163.525,207.573c1.951-0.234,5.028-0.444,5.852,1.812c0.823,2.258-2.233,3.197-5.659,2.604
						c-3.424-0.594-4.198-0.999-4.149-1.994C159.619,209,161.572,207.81,163.525,207.573z"/>
					<path opacity="0.5" fill="#FFFFFF" d="M167.47,209.278c0.287-0.265-1.192-1.435-3.031-1.332
						c-1.84,0.103-2.091,0.552-1.933,0.717c0.159,0.164,1.163-0.309,2.593-0.184C166.53,208.604,167.185,209.542,167.47,209.278z"/>
					<path opacity="0.3" fill="#D8B9AB" d="M163.718,211.989c-3.422-0.592-4.198-0.999-4.149-1.994
						c0.029-0.589,0.732-1.243,1.7-1.73c-0.327,0.595-0.746,2.243,0.003,2.459c1.998,0.571,2.945,0.874,5.782,1.33
						C166.092,212.217,164.929,212.198,163.718,211.989z"/>
				</g>
			</g>
			<g>
				<path opacity="0.3" fill="#934607" d="M142.282,213.694c1.57-0.202,5.345-0.758,6.017,1.291
					c0.674,2.049-1.849,3.532-4.611,3.007s-3.362-0.783-3.306-1.767C140.438,215.244,140.713,213.896,142.282,213.694z"/>
				<g>
					<path fill="#F1ECDB" d="M143.676,213.071c1.563-0.189,4.016-0.34,4.688,1.697c0.672,2.037-1.791,2.957-4.551,2.429
						c-2.76-0.529-3.381-0.914-3.328-1.87C140.537,214.37,142.114,213.262,143.676,213.071z"/>
					<path opacity="0.5" fill="#FFFFFF" d="M146.839,214.655c0.228-0.237-0.959-1.312-2.432-1.238
						c-1.473,0.074-1.685,0.491-1.558,0.644c0.128,0.152,0.939-0.279,2.083-0.152C146.077,214.034,146.61,214.892,146.839,214.655z"
						/>
					<path opacity="0.3" fill="#D8B9AB" d="M143.812,217.197c-2.76-0.529-3.381-0.914-3.328-1.87
						c0.031-0.565,0.604-1.188,1.382-1.637c-0.265,0.55-0.618,2.114-0.016,2.312c1.604,0.528,2.367,0.814,4.652,1.223
						C145.726,217.389,144.787,217.383,143.812,217.197z"/>
				</g>
			</g>
			<g>
				<path opacity="0.3" fill="#934607" d="M148.115,207.377c-1.568-0.341-5.392-1.302-5.935,0.503
					c-0.544,1.804,2.071,3.254,4.782,2.999c2.71-0.255,3.271-0.417,3.17-1.216C150.033,208.866,149.684,207.717,148.115,207.377z"/>
				<g>
					<path fill="#F1ECDB" d="M146.694,206.665c-1.572-0.354-4.052-0.792-4.594,1.009c-0.542,1.801,1.994,2.783,4.703,2.544
						c2.71-0.24,3.292-0.502,3.191-1.293C149.893,208.131,148.268,207.02,146.694,206.665z"/>
					<path opacity="0.5" fill="#FFFFFF" d="M143.633,207.741c-0.245-0.24,0.875-1.085,2.352-0.849
						c1.476,0.234,1.71,0.624,1.592,0.744c-0.116,0.119-0.947-0.348-2.085-0.361C144.353,207.262,143.879,207.982,143.633,207.741z"
						/>
					<path opacity="0.3" fill="#D8B9AB" d="M146.804,210.218c2.709-0.241,3.292-0.502,3.191-1.293
						c-0.06-0.469-0.66-1.042-1.461-1.511c0.298,0.503,0.73,1.846,0.149,1.962c-1.553,0.312-2.288,0.489-4.556,0.662
						C144.914,210.238,145.846,210.303,146.804,210.218z"/>
				</g>
			</g>
			<g>
				<path opacity="0.3" fill="#934607" d="M176.798,214.708c-1.503-0.275-5.165-1.029-5.721,0.89
					c-0.558,1.919,1.924,3.398,4.532,3.014c2.608-0.385,3.15-0.59,3.071-1.482C178.602,216.235,178.303,214.983,176.798,214.708z"/>
				<g>
					<path fill="#F1ECDB" d="M175.447,214.043c-1.508-0.271-3.887-0.562-4.443,1.346c-0.556,1.909,1.851,2.87,4.46,2.49
						c2.61-0.378,3.178-0.695,3.101-1.571C178.488,215.43,176.954,214.315,175.447,214.043z"/>
					<path opacity="0.5" fill="#FFFFFF" d="M172.468,215.36c-0.233-0.238,0.875-1.188,2.292-1.035
						c1.416,0.154,1.625,0.558,1.51,0.692c-0.116,0.136-0.901-0.312-1.996-0.258C173.179,214.814,172.7,215.596,172.468,215.36z"/>
					<path opacity="0.3" fill="#D8B9AB" d="M175.464,217.879c2.61-0.378,3.178-0.695,3.101-1.571
						c-0.046-0.519-0.607-1.122-1.366-1.582c0.273,0.525,0.657,1.982,0.092,2.138c-1.505,0.414-2.218,0.644-4.396,0.934
						C173.646,217.98,174.542,218.013,175.464,217.879z"/>
				</g>
			</g>
			<g>
				<path opacity="0.3" fill="#934607" d="M213.322,203.746c1.443-0.748,4.87-2.442,6.018-0.535c1.147,1.906-1.48,3.894-4.237,4.242
					c-2.757,0.35-3.305-0.77-3.487-1.685C211.434,204.855,211.878,204.493,213.322,203.746z"/>
				<g>
					<path fill="#F1ECDB" d="M214.493,202.615c1.445-0.761,3.79-1.791,4.942,0.116c1.153,1.909-1.057,3.549-3.818,3.908
						c-2.763,0.36-3.426,0.21-3.607-0.706C211.829,205.019,213.045,203.376,214.493,202.615z"/>
					<path opacity="0.5" fill="#FFFFFF" d="M219.195,203.402c0.276-0.262-0.687-1.45-2.169-1.336
						c-1.484,0.116-1.765,0.576-1.669,0.735s0.979-0.323,2.095-0.202C218.567,202.72,218.918,203.664,219.195,203.402z"/>
					<path opacity="0.3" fill="#D8B9AB" d="M215.617,206.64c-2.761,0.359-3.426,0.21-3.607-0.706
						c-0.107-0.541,0.282-1.334,0.912-2.051c-0.116,0.64-0.188,1.537,0.258,1.785c0.601,0.332,3.359-0.463,5.03,0.157
						C217.496,206.228,216.596,206.513,215.617,206.64z"/>
				</g>
			</g>
			<g>
				<path opacity="0.3" fill="#934607" d="M58.458,157.482c1.804,0.192,6.032,0.968,7.077,5.045c1.046,4.077-2.085,4.908-5.28,3.015
					c-3.196-1.896-3.815-2.661-3.992-4.48C56.089,159.242,56.651,157.287,58.458,157.482z"/>
				<g>
					<path fill="#F1ECDB" d="M59.986,156.789c1.818,0.232,4.693,1.017,5.731,5.083c1.04,4.067-1.591,4.691-4.799,2.761
						c-3.208-1.932-4.044-2.856-4.21-4.662C56.541,158.163,58.168,156.557,59.986,156.789z"/>
					<path opacity="0.5" fill="#FFFFFF" d="M63.937,161.068c0.229-0.361-1.315-2.896-3.034-3.325
						c-1.721-0.429-1.885,0.318-1.705,0.662c0.178,0.344,1.04-0.191,2.401,0.493C62.96,159.586,63.708,161.426,63.937,161.068z"/>
					<path opacity="0.3" fill="#D8B9AB" d="M60.918,164.633c-3.21-1.932-4.044-2.856-4.21-4.662
						c-0.099-1.069,0.424-2.075,1.252-2.661c-0.202,0.975-0.251,3.85,0.482,4.436c1.961,1.572,2.881,2.359,5.503,3.906
						C63.098,165.655,62.053,165.314,60.918,164.633z"/>
				</g>
			</g>
			<g>
				<path opacity="0.3" fill="#934607" d="M69.181,151.956c-1.383-1.286-4.735-4.259-5.847-2.227
					c-1.11,2.03,1.633,5.307,4.265,6.434c2.632,1.124,3.072-0.181,3.228-1.275C70.98,153.793,70.564,153.242,69.181,151.956z"/>
				<g>
					<path fill="#F1ECDB" d="M68.078,150.296c-1.375-1.283-3.68-3.166-4.83-1.172c-1.149,1.996,1.147,4.71,3.797,5.855
						c2.647,1.145,3.258,1.115,3.405,0.011C70.597,153.887,69.455,151.578,68.078,150.296z"/>
					<path opacity="0.5" fill="#FFFFFF" d="M63.477,150.003c-0.27-0.39,0.7-1.562,2.148-1.033c1.451,0.53,1.705,1.146,1.604,1.311
						c-0.101,0.162-0.956-0.65-2.049-0.801S63.748,150.393,63.477,150.003z"/>
					<path opacity="0.3" fill="#D8B9AB" d="M67.045,154.979c2.647,1.145,3.258,1.115,3.405,0.011
						c0.087-0.653-0.289-1.728-0.884-2.762c0.098,0.802,0.175,1.924-0.246,2.118c-0.564,0.264-3.246-1.446-4.794-1.052
						C65.233,153.988,66.107,154.574,67.045,154.979z"/>
				</g>
			</g>
			<g>
				<path opacity="0.3" fill="#934607" d="M92.293,189.164c1.784,0.125,6.129,0.717,7.187,3.883
					c1.055,3.165-2.526,3.477-5.823,1.947c-3.299-1.53-3.783-2.033-3.797-3.28C89.844,190.468,90.509,189.038,92.293,189.164z"/>
				<g>
					<path fill="#F1ECDB" d="M93.835,188.576c1.803,0.126,4.779,0.763,5.844,3.962c1.063,3.2-1.945,3.414-5.257,1.875
						c-3.313-1.539-3.994-2.16-4.019-3.433C90.379,189.706,92.033,188.449,93.835,188.576z"/>
					<path opacity="0.5" fill="#FFFFFF" d="M97.8,191.9c0.251-0.276-1.332-2.283-3.06-2.582c-1.729-0.301-1.909,0.291-1.743,0.551
						s1.048-0.171,2.425,0.351C96.799,190.741,97.547,192.18,97.8,191.9z"/>
					<path opacity="0.3" fill="#D8B9AB" d="M94.422,194.413c-3.311-1.541-3.994-2.16-4.019-3.433
						c-0.014-0.753,0.571-1.482,1.413-1.942c-0.243,0.75-0.504,2.803,0.207,3.242c1.898,1.173,2.806,1.767,5.626,3.036
						C96.721,195.27,95.594,194.959,94.422,194.413z"/>
				</g>
			</g>
			<g>
				<path opacity="0.3" fill="#934607" d="M241.521,205.222c2.072-0.198,6.902-0.469,7.041,2.666
					c0.135,3.135-3.985,4.264-7.314,3.226c-3.332-1.04-3.78-1.494-3.417-2.813C238.194,206.981,239.449,205.418,241.521,205.222z"/>
				<g>
					<path fill="#F1ECDB" d="M243.523,204.373c2.079-0.194,5.303-0.188,5.437,2.947c0.135,3.135-3.31,4.041-6.645,3.003
						c-3.335-1.036-3.986-1.582-3.62-2.904C239.062,206.099,241.443,204.568,243.523,204.373z"/>
					<path opacity="0.5" fill="#FFFFFF" d="M247.023,207.006c0.38-0.332-0.764-2.069-2.685-2.058
						c-1.921,0.01-2.329,0.621-2.218,0.854c0.109,0.232,1.291-0.357,2.719-0.082C246.268,205.996,246.643,207.341,247.023,207.006z"
						/>
					<path opacity="0.3" fill="#D8B9AB" d="M242.315,210.323c-3.335-1.034-3.986-1.582-3.62-2.904
						c0.219-0.779,1.146-1.626,2.293-2.235c-0.528,0.789-1.486,2.968-0.79,3.3c1.857,0.886,2.733,1.356,5.532,2.199
						C244.686,210.814,243.496,210.689,242.315,210.323z"/>
				</g>
			</g>
			<g>
				<path opacity="0.3" fill="#934607" d="M47.132,143.258c1.98,0.272,6.448,1.104,7.366,5.133c0.92,4.027-2.36,4.804-5.878,2.683
					c-3.518-2.12-4.187-2.895-4.262-4.638C44.285,144.692,45.152,142.984,47.132,143.258z"/>
				<g>
					<path fill="#F1ECDB" d="M48.93,142.741c1.993,0.314,4.95,1.065,5.81,5.033c0.862,3.968-1.886,4.544-5.391,2.41
						c-3.506-2.135-4.378-3.062-4.412-4.755S46.938,142.427,48.93,142.741z"/>
					<path opacity="0.5" fill="#FFFFFF" d="M54.285,148.541c0.392-0.116-0.407-2.824-2.181-4.115
						c-1.773-1.293-2.287-0.915-2.229-0.59c0.06,0.323,1.268,0.484,2.546,1.765C53.703,146.88,53.893,148.657,54.285,148.541z"/>
					<path opacity="0.3" fill="#D8B9AB" d="M49.349,150.185c-3.504-2.135-4.38-3.063-4.412-4.755c-0.021-1,0.675-1.89,1.672-2.358
						c-0.352,0.845-0.664,2.208-0.157,3.057c0.681,1.134,4.229,2.568,6.217,5.274C51.74,151.354,50.589,150.94,49.349,150.185z"/>
				</g>
			</g>
			<g>
				<path opacity="0.3" fill="#934607" d="M43.828,155.031c1.454,0.007,4.92,0.029,6.061,3.619c1.139,3.59-0.841,5.161-3.567,3.692
					c-2.728-1.47-3.386-1.989-3.61-3.553C42.485,157.228,42.375,155.024,43.828,155.031z"/>
				<g>
					<path fill="#F1ECDB" d="M45,154.275c1.454,0.032,3.759,0.446,4.895,4.032c1.137,3.587-0.932,4.325-3.67,2.833
						c-2.738-1.493-3.455-2.228-3.677-3.787C42.327,155.794,43.546,154.241,45,154.275z"/>
					<path opacity="0.5" fill="#FFFFFF" d="M48.427,157.738c0.156-0.344-1.245-2.479-2.635-2.7s-1.486,0.451-1.322,0.738
						c0.162,0.288,0.828-0.268,1.953,0.221C47.551,156.488,48.271,158.08,48.427,157.738z"/>
					<path opacity="0.3" fill="#D8B9AB" d="M46.224,161.141c-2.738-1.493-3.455-2.228-3.677-3.787c-0.13-0.92,0.243-1.844,0.87-2.43
						c-0.106,0.874-0.001,3.391,0.626,3.85c1.68,1.229,2.482,1.86,4.715,3.069C48.073,161.904,47.194,161.669,46.224,161.141z"/>
				</g>
			</g>
			<g>
				<path opacity="0.3" fill="#934607" d="M41.09,139.273c-1.573-0.65-5.529-2.306-5.888,0.434c-0.357,2.74,2.667,5.317,5.235,5.09
					c2.569-0.228,3.072-0.408,2.848-1.73C43.059,141.744,42.665,139.925,41.09,139.273z"/>
				<g>
					<path fill="#F1ECDB" d="M39.667,138.132c-1.568-0.619-4.176-1.444-4.563,1.263c-0.386,2.709,2.425,4.476,5.02,4.273
						c2.595-0.201,3.109-0.544,2.925-1.817C42.862,140.574,41.235,138.751,39.667,138.132z"/>
					<path opacity="0.5" fill="#FFFFFF" d="M36.626,139.529c-0.262-0.371,0.855-1.566,2.333-1.13
						c1.479,0.438,1.707,1.043,1.592,1.211c-0.113,0.169-0.954-0.603-2.092-0.691C37.321,138.83,36.888,139.9,36.626,139.529z"/>
					<path opacity="0.3" fill="#D8B9AB" d="M40.124,143.668c2.595-0.201,3.111-0.545,2.925-1.817
						c-0.111-0.755-0.739-1.712-1.542-2.485c0.299,0.773,0.86,2.94,0.304,3.073c-1.486,0.357-2.165,0.587-4.339,0.776
						C38.284,143.579,39.206,143.74,40.124,143.668z"/>
				</g>
			</g>
			<g>
				<path opacity="0.3" fill="#934607" d="M25.953,143.768c1.36-0.794,4.546-2.37,6.256,0.897c1.71,3.269-0.269,5.796-3.113,5.686
					c-2.846-0.111-3.48-0.482-4.009-2.096C24.559,146.639,24.591,144.562,25.953,143.768z"/>
				<g>
					<path fill="#F1ECDB" d="M26.936,142.343c1.378-0.742,3.58-1.599,5.254,1.625c1.672,3.221-0.005,5.268-2.846,5.136
						c-2.843-0.132-3.651-0.533-4.16-2.119C24.679,145.397,25.558,143.085,26.936,142.343z"/>
					<path opacity="0.5" fill="#FFFFFF" d="M32.109,144.91c0.221-0.314-1.063-2.39-2.603-2.659
						c-1.537-0.271-1.753,0.335-1.613,0.605c0.139,0.267,0.973-0.207,2.177,0.306C31.273,143.675,31.889,145.225,32.109,144.91z"/>
					<path opacity="0.3" fill="#D8B9AB" d="M29.344,149.104c-2.843-0.132-3.651-0.533-4.16-2.119
						c-0.299-0.938-0.121-2.146,0.37-3.112c0.043,0.977,0.243,2.425,0.811,2.951c0.765,0.709,3.465,0.143,5.458,1.65
						C31.207,148.926,30.348,149.149,29.344,149.104z"/>
				</g>
			</g>
		</g>
	</g>
	<g>
		<radialGradient id="SVGID_2_" cx="111.4375" cy="67.9004" r="74.8977" gradientUnits="userSpaceOnUse">
			<stop  offset="0" style="stop-color:#CC6F00"/>
			<stop  offset="1" style="stop-color:#9E4400"/>
		</radialGradient>
		<polygon opacity="0.8" fill="url(#SVGID_2_)" points="26.976,117.252 168.159,5.333 177.747,8.246 195.899,3.982 42.521,131.818 
					"/>
		<path fill="#42210B" d="M26.635,117.522L168.159,5.333c5.223,1.23,5.223,1.421,12.849,1.283c6.872-0.125,11.31-2.343,11.31-2.343
			L40.276,129.271c0,0-4.26-0.168-7.431-1.594C29.674,126.251,26.635,117.522,26.635,117.522z"/>
		<path opacity="0.2" d="M26.635,116.85L168.159,5.333c0,0-0.896,1.531,5.978,1.408c6.872-0.125,6.111,0.005,6.111,0.005
			L30.856,121.823L26.635,116.85z"/>
	</g>
	<g>
		<radialGradient id="SVGID_3_" cx="167.3867" cy="82.1621" r="82.8047" gradientUnits="userSpaceOnUse">
			<stop  offset="0" style="stop-color:#CC6F00"/>
			<stop  offset="1" style="stop-color:#9E4400"/>
		</radialGradient>
		<path opacity="0.8" fill="url(#SVGID_3_)" d="M77.575,149.507L232.369,7.015c0,0,3.349,2.256,9.315,3.477
			s15.514-0.979,15.514-0.979L101.041,157.31L77.575,149.507z"/>
		<path fill="#42210B" d="M77.575,149.507L232.988,6.377c2.375,3.102,1.91,2.687,9.408,4.087c6.594,1.231,11.221-0.659,11.221-0.659
			L97.645,156.181c0,0-4.341,4.897-11.879,3.116C78.226,157.515,77.575,149.507,77.575,149.507z"/>
		<path opacity="0.2" d="M77.575,149.391L232.88,6.476c0,0,2.073,2.812,4.618,3.14c5.758,0.742,4.187,0.875,4.187,0.875
			L78.994,154.029L77.575,149.391z"/>
	</g>
	<g>
		
			<radialGradient id="SVGID_4_" cx="225.9473" cy="145.8184" r="76.7615" gradientTransform="matrix(0.9989 0.0478 -0.0478 0.9989 15.5353 -61.8702)" gradientUnits="userSpaceOnUse">
			<stop  offset="0" style="stop-color:#CC6F00"/>
			<stop  offset="1" style="stop-color:#9E4400"/>
		</radialGradient>
		<path opacity="0.8" fill="url(#SVGID_4_)" d="M153.582,167.226L294.484,20.962c0,0,0.056,3.578,6.444,6.909
			c6.39,3.332,10.604-0.294,10.604-0.294l3.06,1.307L181.6,168.021L153.582,167.226z"/>
		<path fill="#42210B" d="M154.708,167.069L294.484,20.962c2.569,3.036,0.635,3.935,7.6,7.046c6.117,2.733,9.448-0.431,9.448-0.431
			L177.474,167.565c0,0-3.467,4.749-11.399,4.002S154.708,167.069,154.708,167.069z"/>
		<polygon opacity="0.2" points="154.708,167.069 294.484,20.962 296.985,25.561 301.654,27.813 160.041,170.237 157.419,169.038 		
			"/>
	</g>
	<g>
		<radialGradient id="SVGID_5_" cx="298.8916" cy="106.7217" r="56.3195" gradientUnits="userSpaceOnUse">
			<stop  offset="0" style="stop-color:#CC6F00"/>
			<stop  offset="1" style="stop-color:#9E4400"/>
		</radialGradient>
		<path opacity="0.8" fill="url(#SVGID_5_)" d="M242.85,163.317L343.81,50.126c0,0,0.735,5.524,2.993,7.841s6.605,4.36,6.605,4.36
			l1.525,2.738L269.9,158.218L242.85,163.317z"/>
		<path fill="#42210B" d="M243.966,163.107L343.81,50.126c0.192,1.63,0.846,5.393,2.993,7.841c2.533,2.885,6.605,4.36,6.605,4.36
			l-86.74,96.234c0,0-4.871,5.466-10.662,6.743S243.966,163.107,243.966,163.107z"/>
		<path opacity="0.2" d="M243.966,162.435L343.81,50.126c0,0-0.155,1.515,1.179,4.778c0.465,1.138,1.25,2.499,1.25,2.499
			l-92.466,103.74L243.966,162.435z"/>
	</g>
	<g>
		
			<radialGradient id="SVGID_6_" cx="41.0015" cy="264.3779" r="49.2918" gradientTransform="matrix(0.9831 0.1828 -0.1828 0.9831 73.1737 -212.0928)" gradientUnits="userSpaceOnUse">
			<stop  offset="0" style="stop-color:#CC6F00"/>
			<stop  offset="1" style="stop-color:#9E4400"/>
		</radialGradient>
		<polygon opacity="0.8" fill="url(#SVGID_6_)" points="13.495,82.604 96.317,15.947 100.805,17.899 106.122,17.167 119.787,12.031 
			15.797,99.602 		"/>
		<path fill="#42210B" d="M13.276,83.552l82.006-66.657c3.523,1.553,8.83,0.488,8.83,0.488l13.865-4.113L15.005,97.181l-1.216-5.365
			L13.276,83.552z"/>
		<polygon opacity="0.2" points="13.33,84.155 96.331,16.555 100.075,16.826 13.364,88.014 		"/>
	</g>
	<path fill="#EAAC60" d="M311.209,27.816"/>
</g>
</svg>
