<?xml version="1.0" encoding="utf-8"?>
<!-- Generator: Adobe Illustrator 16.0.4, SVG Export Plug-In . SVG Version: 6.00 Build 0)  -->
<!DOCTYPE svg PUBLIC "-//W3C//DTD SVG 1.1//EN" "http://www.w3.org/Graphics/SVG/1.1/DTD/svg11.dtd">
<svg version="1.1" id="Layer_1" xmlns="http://www.w3.org/2000/svg" xmlns:xlink="http://www.w3.org/1999/xlink" x="0px" y="0px"
	 width="375px" height="185px" viewBox="0 0 375 185" enable-background="new 0 0 375 185" xml:space="preserve">
<g>
	<path fill="#FFBC5A" d="M5.151,141.948c3.453,5.003,32.253-23.152,143.898-8.934c54.598,6.954,143.008,44.557,143.008,44.557
		s91.391-108.236,44.883-131.964c-46.511-23.727-161.2-34.408-215.074-25.581C73.463,27.958,14.47,110.854,5.608,132.282
		C4.607,134.704,4.8,141.44,5.151,141.948z"/>
	<path fill="#FFB031" d="M5.438,134.661c3.452,5.001,32.253-23.154,143.896-8.934c54.598,6.953,143.009,44.555,143.009,44.555
		s78.112-93.126,49.77-120.907C300.871,8.953,176.192,0.173,122.153,12.739C68.98,25.104,1.984,129.659,5.438,134.661z"/>
	<path opacity="0.15" fill="#ED9A21" d="M300.182,160.451c19.051-24.667,64.632-88.825,41.932-111.076
		c-11.327-11.102-28.955-19.811-49.678-26.353c16.42,26.462,36.447,70.827,18.373,110.119
		C306.383,142.763,302.906,151.894,300.182,160.451z"/>
</g>
</svg>
