<?xml version="1.0" encoding="utf-8"?>
<!-- Generator: Adobe Illustrator 16.0.4, SVG Export Plug-In . SVG Version: 6.00 Build 0)  -->
<!DOCTYPE svg PUBLIC "-//W3C//DTD SVG 1.1//EN" "http://www.w3.org/Graphics/SVG/1.1/DTD/svg11.dtd">
<svg version="1.1" id="Layer_1" xmlns="http://www.w3.org/2000/svg" xmlns:xlink="http://www.w3.org/1999/xlink" x="0px" y="0px"
	 width="375px" height="155px" viewBox="0 0 375 155" enable-background="new 0 0 375 155" xml:space="preserve">
<g>
	<path fill="#BF1B00" d="M17.618,87.05c1.263,23.459,16.548,34.887,49.837,44.977c33.29,10.089,123.815,19.868,166.36,23.516
		c42.545,3.646,82.203-46.188,108.354-56.337c15.649-6.072,18.01-26.146,12.623-43.171c-1.63-5.154-7.418-8.844-10.314-12.967
		c-3.844-5.473-2.709-7.82-8.154-9.539c-2.354-0.744-8.931-1.6-11.99-2.643c-3.414-1.162-5.896-5.525-10.024-6.936
		c-4.2-1.435-5.362-3.689-10.121-5.244c-4.962-1.622-10.559-4.021-15.929-5.623c-3.365-1.004-9.773-0.515-13.232-1.461
		c-3.638-0.995-5.102-4.209-8.786-5.097c-5.504-1.328-13.242-0.25-18.689-1.216c-4.771-0.845-9.479-1.525-14.066-1.988
		c-7.522-0.761-14.713-0.94-21.278-0.322c-13.633,1.284-23.597-3.769-35.351-3.772c-4.131-0.001-7.346,2.713-11.548,2.735
		c-3.669,0.018-6.193-1.015-10.028-0.912c-5.858,0.157-11.676,2.5-18.233,3.039c-2.954,0.242-8.093,0.862-11.244,1.215
		c-2.852,0.319-6.99-0.426-10.029,0c-3.687,0.518-8.461,3.352-12.466,4.05c-2.34,0.408-4.961,4.642-9.414,7.193
		c-2.813,1.614-9.23,0.645-12.459,2.735c-4.016,2.601-6.014,5.89-10.092,8.721c-2.982,2.068-5.725,0.896-8.444,2.827
		c-2.326,1.651-8.368,4.07-10.333,5.47c-4.228,3.016-7.397,8.269-8.812,9.118c-2.57,1.542-3.184,3.284-9.724,8.509
		c-2.03,1.62-2.699,6.995-4.558,9.116c-1.859,2.121-4.906,0.989-6.401,3.511C19.481,72.605,17.22,79.667,17.618,87.05z"/>
	<path fill="#991200" d="M286.84,123.653c-8.854,4.62-6.947,14.023-24.806,17.953c-4.641,1.021-14.845-2.177-14.845-2.177
		s-9.829,5.716-13.136,6.021c-4.119,0.377-8.817-2.165-13.682-2.738c-5.355-0.629-8.648,2.898-14.59,2.238
		c-2.871-0.32-6.172-2.094-9.1-2.44c-4.169-0.492-7.979,0.426-12.135-0.152c-6.682-0.929-13.25-1.993-19.393-3.267
		c-6.054-1.254-10.599-5.131-15.889-6.066c-2.685-0.475-8.422,1.888-8.422,1.888s-9.435-4.296-13.017-4.103
		c-2.336,0.127-9.302,2.27-12.434,2.203c-2.967-0.062-6.955-2.354-10.256-2.659c-5.664-0.524-14.636-4.841-20.512-5.697
		c-14.203-2.071-24.881-1.538-32.568-6.003c-6.784-3.938-14.156-14.166-21.752-17.549c-2.668-1.188-6.673,2.08-8.884,1.777
		c6.477,13.389,17.965,24.9,42.729,32.406c5.199,1.577,12.938,0.705,20.665,2.109c4.261,0.774,12.862,6.115,12.862,6.115
		l18.353,1.022c0,0,15.062,3.159,20.343,3.743c8.803,0.975,25.692,0.024,25.692,0.024s9.703,3.187,14.416,3.604
		c9.362,0.829,18.346-0.213,26.539,1.637c10.157,2.294,22.122-0.201,30.796,1.998c4.367,1.105,24.304-2.098,24.304-2.098
		l13.85-3.012l17.162-9.333l9.935-11.14c0,0,18.821-13.721,27.398-21.074C323.703,109.487,291.227,121.366,286.84,123.653z"/>
	<path fill="#991200" d="M345.414,100.691c11.241-4.362,12.36-17.436,11.942-29.926c-3.674,11.113-12.446,25.644-33.101,38.036
		c-8.265,4.959-12.353,8.631-13.659,11.346C322.445,110.987,336.363,104.204,345.414,100.691z"/>
	<g>
		<path fill="#991200" d="M215.51,32.358c0,0-15.877,8.233-2.352,8.233s23.522,2.941,30.58,3.528
			c7.058,0.589,30.58,1.766,27.051-5.292c-3.528-7.057-13.525-3.529-24.698-3.529C234.917,35.298,224.92,29.417,215.51,32.358z"/>
		<path fill="#991200" d="M57.865,68.412c-3.431-6.183,19.619-18.36,41.498-14.714c21.88,3.646,39.83-11.388,42.375-3.519
			C144.284,58.045,61.297,74.592,57.865,68.412z"/>
		<path fill="#991200" d="M210.709,114.018c-8.218,0.483,1.765,8.508,3.531,8.508c1.763,0,3.223,5.993,22.041,4.817
			c18.817-1.176,27.944-11.285,20.3-13.051c-7.646-1.764-13.508,0.482-21.739,2.248
			C226.607,118.304,220.707,113.429,210.709,114.018z"/>
		<path fill="#991200" d="M115.441,96.112c0,0,32.204-6.9,38.338-8.434c6.134-1.534-6.134-6.135-15.335-3.068
			C129.242,87.679,111.607,85.378,115.441,96.112z"/>
		<path fill="#991200" d="M203.431,70.752c0,0-23.768-0.767-6.9,5.366c16.869,6.136,32.812,3.352,43.705,0
			c19.937-6.133,16.869-8.433,5.368-8.433C234.102,67.686,218,71.519,203.431,70.752z"/>
		<path fill="#991200" d="M298.243,67.106c0,0-23.769-0.768-6.9,5.366c16.87,6.135,32.812,3.352,43.706,0
			c19.937-6.134,16.868-8.435,5.367-8.435S312.812,67.873,298.243,67.106z"/>
	</g>
	<g opacity="0.1">
		<path fill="#ED827A" d="M291.927,58.507c0,0-21.353,3.733-6.779-2.805c14.574-6.537,29.238-6.748,39.409-5.882
			c18.613,1.583,16.088,3.597,5.716,5.145C319.902,56.513,304.984,56.013,291.927,58.507z"/>
		<path fill="#ED827A" d="M133.095,26.677c-10.453,4.182-2.431,8.103,3.242,8.103c5.672,0,12.965-0.81,24.311-4.05
			c11.345-3.242,16.207-12.966,3.24-11.347C150.923,21.005,141.199,23.437,133.095,26.677z"/>
		<path fill="#ED827A" d="M39.957,80.704c9.725,5.674,7.551,12.943,12.081,17.689c2.798,2.931,8.431,6.905,14.104,8.525
			c5.672,1.621,6.512,11.758-1.592,8.518c-8.103-3.242-15.315-10.57-19.63-15.964C40.605,94.079,39.957,80.704,39.957,80.704z"/>
		<path fill="#ED827A" d="M138.768,115.008c0,0,20.258-1.621,30.793,2.431c10.536,4.052,22.69-5.672,16.208-6.482
			s-21.881-4.861-34.036-4.053C139.578,107.714,133.095,108.525,138.768,115.008z"/>
		<path fill="#ED827A" d="M275.972,19.382c-22.418-6.292-46.602-11.183-65.59-9.395c-6.355,0.598-12.305,0.936-18.039,1.128
			c-0.688,2.115,0.147,4.32,6.188,4.724c12.156,0.809,17.018,2.431,30.795,3.24C241.817,19.814,276.295,24.547,275.972,19.382z"/>
	</g>
	<path fill="#991200" d="M114.336,145.621"/>
</g>
</svg>
